<svg width="28" height="30" viewBox="0 0 28 30" fill="none" xmlns="http://www.w3.org/2000/svg">
<g clip-path="url(#clip0_443_198)">
<rect width="28" height="30" fill="black"/>
<path fill-rule="evenodd" clip-rule="evenodd" d="M9.04433 14.5562L9.11153 14.5009C9.14596 14.471 9.18618 14.4482 9.22982 14.4338C9.27347 14.4193 9.31964 14.4135 9.36562 14.4168C9.41159 14.42 9.45644 14.4322 9.4975 14.4526C9.53856 14.473 9.575 14.5012 9.60466 14.5356C9.63433 14.57 9.65661 14.6098 9.6702 14.6527C9.68379 14.6956 9.68841 14.7407 9.68379 14.7854C9.67916 14.83 9.66539 14.8734 9.64328 14.9127C9.62116 14.9521 9.59116 14.9868 9.55505 15.0147L9.04366 15.434V17.8195C9.04366 17.8638 9.0347 17.9076 9.01728 17.9485C8.99987 17.9894 8.97435 18.0266 8.94218 18.0579C8.91 18.0892 8.87181 18.1141 8.82979 18.131C8.78776 18.1479 8.74272 18.1566 8.69724 18.1565H5.11111C5.01933 18.1565 4.9313 18.121 4.8664 18.0578C4.8015 17.9946 4.76503 17.9089 4.76503 17.8195V14.3255C4.76503 14.2812 4.77399 14.2374 4.79138 14.1965C4.80877 14.1556 4.83426 14.1184 4.8664 14.0871C4.89854 14.0558 4.93669 14.031 4.97868 14.0141C5.02066 13.9971 5.06567 13.9884 5.11111 13.9884H8.69792C8.74339 13.9884 8.78843 13.997 8.83046 14.014C8.87248 14.0309 8.91068 14.0557 8.94285 14.087C8.97502 14.1183 9.00054 14.1555 9.01795 14.1964C9.03537 14.2373 9.04433 14.2812 9.04433 14.3255V14.5546V14.5562ZM5.85233 16.0384C5.81542 16.0115 5.78446 15.9776 5.76126 15.9387C5.73807 15.8999 5.72312 15.8569 5.71731 15.8123C5.7115 15.7677 5.71495 15.7225 5.72744 15.6792C5.73993 15.636 5.76122 15.5956 5.79004 15.5605C5.81886 15.5254 5.85462 15.4963 5.8952 15.475C5.93579 15.4536 5.98036 15.4404 6.02629 15.4361C6.07221 15.4319 6.11855 15.4366 6.16255 15.4501C6.20654 15.4637 6.2473 15.4856 6.28241 15.5148L7.09956 16.1513L8.35183 15.1244V14.6629H5.45753V17.482H8.35183V16.0021L7.32838 16.8419C7.26742 16.8918 7.19058 16.9196 7.11094 16.9206C7.0313 16.9215 6.95378 16.8956 6.89158 16.8471L5.85367 16.0384H5.85233ZM10.6003 9.09764C10.5541 9.09904 10.5081 9.09139 10.465 9.07514C10.4219 9.05889 10.3826 9.03437 10.3494 9.00304C10.3162 8.9717 10.2898 8.93419 10.2718 8.89273C10.2538 8.85127 10.2445 8.80671 10.2445 8.76169C10.2445 8.71667 10.2538 8.67211 10.2718 8.63065C10.2898 8.58919 10.3162 8.55168 10.3494 8.52035C10.3826 8.48901 10.4219 8.46449 10.465 8.44824C10.5081 8.43199 10.5541 8.42434 10.6003 8.42575L18.9701 8.43262C19.0597 8.43534 19.1447 8.47193 19.2071 8.53464C19.2695 8.59734 19.3044 8.68124 19.3044 8.76856C19.3044 8.85589 19.2695 8.93979 19.2071 9.00249C19.1447 9.0652 19.0597 9.10178 18.9701 9.10451L10.6003 9.09764ZM9.04433 8.44898L9.11153 8.39367C9.18144 8.33639 9.27185 8.3085 9.36287 8.31614C9.45389 8.32378 9.53807 8.36632 9.59688 8.43442C9.6557 8.50251 9.68433 8.59057 9.67649 8.67923C9.66864 8.76789 9.62496 8.84988 9.55505 8.90716L9.04366 9.32673V11.7119C9.0437 11.7562 9.03477 11.8001 9.01738 11.8411C8.99999 11.882 8.97447 11.9192 8.94229 11.9506C8.91012 11.9819 8.87191 12.0068 8.82986 12.0237C8.78781 12.0407 8.74275 12.0494 8.69724 12.0493H5.11111C5.06564 12.0493 5.02061 12.0406 4.9786 12.0236C4.93659 12.0067 4.89842 11.9818 4.86628 11.9505C4.83414 11.9191 4.80865 11.8819 4.79128 11.841C4.77391 11.8001 4.76499 11.7562 4.76503 11.7119V8.21825C4.76503 8.12885 4.8015 8.04311 4.8664 7.9799C4.9313 7.91668 5.01933 7.88116 5.11111 7.88116H8.69792C8.74339 7.88112 8.78843 7.88981 8.83046 7.90673C8.87248 7.92365 8.91068 7.94847 8.94285 7.97978C8.97502 8.01109 9.00054 8.04826 9.01795 8.08918C9.03537 8.1301 9.04433 8.17396 9.04433 8.21825V8.44898ZM5.85233 9.9312C5.81542 9.90424 5.78446 9.87033 5.76126 9.83149C5.73807 9.79265 5.72312 9.74966 5.71731 9.70508C5.7115 9.66051 5.71495 9.61525 5.72744 9.57199C5.73993 9.52874 5.76122 9.48837 5.79004 9.45328C5.81886 9.41819 5.85462 9.3891 5.8952 9.36773C5.93579 9.34637 5.98036 9.33316 6.02629 9.3289C6.07221 9.32463 6.11855 9.3294 6.16255 9.34291C6.20654 9.35642 6.2473 9.37841 6.28241 9.40756L7.09956 10.0441L8.35049 9.01778V8.55633H5.45753V11.3755H8.35183V9.89455L7.32838 10.7343C7.26739 10.7842 7.19056 10.812 7.11094 10.8129C7.03131 10.8139 6.9538 10.788 6.89158 10.7396L5.85367 9.93087L5.85233 9.9312ZM9.75732 2.31131H7.40297V4.93735H16.6766V2.31131H14.3239C14.243 2.31132 14.1647 2.28362 14.1027 2.23306C14.0406 2.18251 13.9988 2.11231 13.9845 2.03476C13.9429 1.876 13.8675 1.72749 13.7634 1.59881C13.6592 1.47012 13.5285 1.36411 13.3797 1.2876C12.9699 1.06538 12.5086 0.948751 12.0396 0.948751C11.5706 0.948751 11.1093 1.06538 10.6995 1.2876C10.555 1.36287 10.4275 1.46569 10.3246 1.58995C10.2217 1.71421 10.1456 1.85736 10.1007 2.01087C10.0917 2.09373 10.0516 2.17042 9.98799 2.22615C9.92439 2.28187 9.84186 2.31267 9.75631 2.31262L9.75732 2.31131ZM20.7721 24.0841H18.827C18.638 24.0849 18.4571 24.1583 18.3235 24.2885C18.1898 24.4186 18.1144 24.5949 18.1136 24.7789V26.8015L20.7721 24.0851V24.0841ZM16.2152 23.0545C16.2614 23.0531 16.3075 23.0608 16.3506 23.077C16.3937 23.0933 16.433 23.1178 16.4662 23.1491C16.4994 23.1804 16.5258 23.218 16.5438 23.2594C16.5618 23.3009 16.5711 23.3454 16.5711 23.3905C16.5711 23.4355 16.5618 23.48 16.5438 23.5215C16.5258 23.563 16.4994 23.6005 16.4662 23.6318C16.433 23.6631 16.3937 23.6877 16.3506 23.7039C16.3075 23.7202 16.2614 23.7278 16.2152 23.7264L10.6003 23.7192C10.5541 23.7206 10.5081 23.713 10.465 23.6967C10.4219 23.6805 10.3826 23.6559 10.3494 23.6246C10.3162 23.5933 10.2898 23.5558 10.2718 23.5143C10.2538 23.4728 10.2445 23.4283 10.2445 23.3833C10.2445 23.3382 10.2538 23.2937 10.2718 23.2522C10.2898 23.2108 10.3162 23.1732 10.3494 23.1419C10.3826 23.1106 10.4219 23.0861 10.465 23.0698C10.5081 23.0536 10.5541 23.0459 10.6003 23.0473L16.2152 23.0545ZM10.6003 21.3121C10.5541 21.3135 10.5081 21.3059 10.465 21.2896C10.4219 21.2734 10.3826 21.2488 10.3494 21.2175C10.3162 21.1862 10.2898 21.1487 10.2718 21.1072C10.2538 21.0657 10.2445 21.0212 10.2445 20.9762C10.2445 20.9311 10.2538 20.8866 10.2718 20.8451C10.2898 20.8037 10.3162 20.7662 10.3494 20.7348C10.3826 20.7035 10.4219 20.679 10.465 20.6627C10.5081 20.6465 10.5541 20.6388 10.6003 20.6402L18.9701 20.6471C19.0597 20.6498 19.1447 20.6864 19.2071 20.7491C19.2695 20.8118 19.3044 20.8957 19.3044 20.983C19.3044 21.0704 19.2695 21.1543 19.2071 21.217C19.1447 21.2797 19.0597 21.3163 18.9701 21.319L10.6003 21.3121ZM9.04433 20.6638L9.11153 20.6081C9.14596 20.5783 9.18618 20.5555 9.22982 20.541C9.27347 20.5265 9.31964 20.5208 9.36562 20.524C9.41159 20.5272 9.45644 20.5394 9.4975 20.5598C9.53856 20.5802 9.575 20.6085 9.60466 20.6428C9.63433 20.6772 9.65661 20.717 9.6702 20.7599C9.68379 20.8028 9.68841 20.8479 9.68379 20.8926C9.67916 20.9373 9.66539 20.9806 9.64328 21.02C9.62116 21.0594 9.59116 21.0941 9.55505 21.122L9.04366 21.5415V23.9267C9.04366 23.971 9.0347 24.0148 9.01728 24.0558C8.99987 24.0967 8.97435 24.1339 8.94218 24.1652C8.91 24.1965 8.87181 24.2213 8.82979 24.2382C8.78776 24.2551 8.74272 24.2638 8.69724 24.2638H5.11111C5.01933 24.2638 4.9313 24.2283 4.8664 24.165C4.8015 24.1018 4.76503 24.0161 4.76503 23.9267V20.4327C4.76499 20.3884 4.77391 20.3446 4.79128 20.3036C4.80865 20.2627 4.83414 20.2255 4.86628 20.1942C4.89842 20.1628 4.93659 20.138 4.9786 20.121C5.02061 20.104 5.06564 20.0953 5.11111 20.0953H8.69792C8.74342 20.0953 8.78848 20.104 8.83053 20.1209C8.87258 20.1378 8.91079 20.1627 8.94297 20.194C8.97514 20.2254 9.00066 20.2626 9.01805 20.3036C9.03544 20.3445 9.04437 20.3884 9.04433 20.4327V20.6618V20.6638ZM5.85233 22.1457C5.81542 22.1187 5.78446 22.0848 5.76126 22.046C5.73807 22.0071 5.72312 21.9641 5.71731 21.9196C5.7115 21.875 5.71495 21.8297 5.72744 21.7865C5.73993 21.7432 5.76122 21.7028 5.79004 21.6678C5.81886 21.6327 5.85462 21.6036 5.8952 21.5822C5.93579 21.5608 5.98036 21.5476 6.02629 21.5434C6.07221 21.5391 6.11855 21.5439 6.16255 21.5574C6.20654 21.5709 6.2473 21.5929 6.28241 21.622L7.09956 22.2586L8.35049 21.2326V20.7701H5.45753V23.5893H8.35183V22.1097L7.32838 22.9491C7.26742 22.9991 7.19058 23.0269 7.11094 23.0278C7.0313 23.0288 6.95378 23.0028 6.89158 22.9544L5.85367 22.1457H5.85233ZM19.2923 10.3311C18.5145 10.3482 17.7733 10.6569 17.2232 11.1928C15.308 13.0599 16.9649 15.3263 18.8901 17.2016C19.506 17.8015 20.1229 18.3405 20.675 18.8232C21.0318 19.1351 21.3631 19.4247 21.6376 19.678C21.9356 19.4005 22.2911 19.0889 22.6691 18.7541C23.2151 18.2727 23.8112 17.7491 24.4069 17.1679C26.345 15.2805 27.9685 13.0589 26.0533 11.1928C25.5015 10.6586 24.7606 10.3504 23.9828 10.3314C23.205 10.3125 22.4493 10.5843 21.8708 11.0911C21.8074 11.1471 21.7248 11.1782 21.6391 11.1782C21.5535 11.1782 21.4709 11.1471 21.4074 11.0911L21.3772 11.0645C21.3608 11.0532 21.3455 11.0404 21.3315 11.0263C20.7626 10.5586 20.0371 10.311 19.293 10.3305L19.2923 10.3311ZM23.0266 19.3452C22.6261 19.6983 22.2538 20.0282 21.9256 20.3457V23.747C21.9256 23.794 21.9156 23.8405 21.896 23.8835C21.8764 23.9264 21.8478 23.9649 21.812 23.9964L18.0347 27.8582L18.03 27.8635L18.0256 27.8684L18.0222 27.8716L18.0179 27.8759L18.0128 27.8805L18.0078 27.8847L18.0041 27.8877L18.0018 27.8896L17.99 27.8991L17.9839 27.9037L17.9802 27.9067L17.9772 27.9086L17.9732 27.9112H17.9708L17.9668 27.9135L17.9634 27.9158L17.9601 27.9178L17.9561 27.9201L17.9527 27.922L17.9477 27.925H17.9453L17.9413 27.9269H17.9376L17.9325 27.9296H17.9309H17.9275H17.9231H17.9198H17.9154H17.9124H17.908H17.904L17.8979 27.9315H17.8936H17.8909H17.8862H17.8815H17.8771H17.8734H17.8687H17.864H17.8623H17.8593H17.8542H17.8509H17.8462H17.817H17.8123H17.8079H17.8032H17.7981H3.56148C3.18897 27.9307 2.83195 27.7862 2.56851 27.5296C2.30507 27.2731 2.15663 26.9254 2.15566 26.5625V5.48618C2.15655 5.12331 2.30496 4.77556 2.56842 4.51901C2.83188 4.26245 3.18894 4.11798 3.56148 4.1172H6.71047V3.09218H3.56148C2.89724 3.09417 2.26078 3.35206 1.79109 3.80956C1.3214 4.26705 1.05663 4.88697 1.05459 5.53396V26.6103C1.0568 27.2573 1.32163 27.8771 1.79129 28.3345C2.26094 28.792 2.89729 29.0499 3.56148 29.0521H20.5184C21.1826 29.0499 21.8189 28.792 22.2886 28.3345C22.7582 27.8771 23.0231 27.2573 23.0253 26.6103V19.3449L23.0266 19.3452ZM23.7191 9.66284V5.53396C23.717 4.70788 23.3791 3.91625 22.7792 3.33224C22.1794 2.74824 21.3665 2.4194 20.5184 2.41767H17.3707V1.97455C17.3708 1.93018 17.3619 1.88624 17.3444 1.84525C17.327 1.80425 17.3015 1.767 17.2693 1.73563C17.2371 1.70426 17.1988 1.67938 17.1567 1.66242C17.1147 1.64546 17.0695 1.63676 17.024 1.6368H14.5823C14.4127 1.24792 14.1179 0.923311 13.7423 0.711928C13.2244 0.42409 12.6385 0.272705 12.0423 0.272705C11.4461 0.272705 10.8601 0.42409 10.3423 0.711928C9.96496 0.922539 9.66841 1.24724 9.49759 1.6368H7.05655C6.96474 1.63689 6.87671 1.67247 6.81182 1.73574C6.74692 1.79901 6.71047 1.88479 6.71047 1.97422V2.41767H3.56148C2.71361 2.41975 1.90106 2.74874 1.30152 3.3327C0.701981 3.91667 0.36422 4.70811 0.362091 5.53396V26.6103C0.364043 27.4363 0.701726 28.2279 1.30129 28.812C1.90085 29.3961 2.71349 29.7252 3.56148 29.7273H20.5184C21.3663 29.7252 22.1788 29.3962 22.7784 28.8122C23.3779 28.2283 23.7157 27.4368 23.7178 26.611V18.7329C24.1143 18.3797 24.5171 18.0129 24.8938 17.645C27.0758 15.5197 28.8737 12.9889 26.5402 10.7157C25.8632 10.0581 24.9522 9.67982 23.9963 9.65956C23.9033 9.65727 23.8098 9.65956 23.7168 9.66284H23.7191ZM21.9256 10.211C22.265 10.0035 22.6369 9.85115 23.0266 9.76004V5.53396C23.0246 4.88675 22.7596 4.26663 22.2896 3.8091C21.8197 3.35157 21.1829 3.09382 20.5184 3.09218H17.3707V4.16498H20.5184C20.8909 4.16576 21.248 4.31023 21.5115 4.56679C21.7749 4.82334 21.9233 5.1711 21.9242 5.53396V10.211H21.9256ZM16.734 10.7157C17.3159 10.1533 18.0713 9.79264 18.8841 9.68894C19.6968 9.58523 20.5221 9.74428 21.2331 10.1416V5.53396C21.2323 5.34973 21.1567 5.1733 21.0228 5.04318C20.8889 4.91306 20.7075 4.83984 20.5184 4.83949H17.3707V5.27444C17.3707 5.31878 17.3618 5.36268 17.3443 5.40364C17.3269 5.4446 17.3014 5.48181 17.2692 5.51314C17.237 5.54448 17.1987 5.56933 17.1567 5.58627C17.1146 5.6032 17.0695 5.6119 17.024 5.61185H7.05655C6.96474 5.61177 6.87671 5.57618 6.81182 5.51291C6.74692 5.44964 6.71047 5.36387 6.71047 5.27444V4.83949H3.56148C3.3726 4.84027 3.19167 4.91367 3.05808 5.04373C2.92449 5.1738 2.84904 5.34999 2.84815 5.53396V26.6103C2.84886 26.7944 2.92423 26.9708 3.05784 27.101C3.19146 27.2312 3.37248 27.3047 3.56148 27.3055H17.4211V24.7789C17.4223 24.4162 17.5708 24.0687 17.8343 23.8124C18.0977 23.556 18.4546 23.4117 18.827 23.4109H21.2331V20.2364C20.9344 19.9552 20.59 19.6541 20.2153 19.3269C19.6384 18.8225 18.994 18.2593 18.4009 17.6813L18.3398 17.6182L10.6003 17.6116C10.5541 17.613 10.5081 17.6054 10.465 17.5891C10.4219 17.5729 10.3826 17.5484 10.3494 17.517C10.3162 17.4857 10.2898 17.4482 10.2718 17.4067C10.2538 17.3653 10.2445 17.3207 10.2445 17.2757C10.2445 17.2307 10.2538 17.1861 10.2718 17.1446C10.2898 17.1032 10.3162 17.0657 10.3494 17.0343C10.3826 17.003 10.4219 16.9785 10.465 16.9622C10.5081 16.946 10.5541 16.9383 10.6003 16.9397L17.6846 16.9456C17.1784 16.4124 16.729 15.8306 16.3433 15.2091L10.6003 15.2045C10.5541 15.2059 10.5081 15.1983 10.465 15.182C10.4219 15.1658 10.3826 15.1413 10.3494 15.1099C10.3162 15.0786 10.2898 15.0411 10.2718 14.9996C10.2538 14.9582 10.2445 14.9136 10.2445 14.8686C10.2445 14.8236 10.2538 14.779 10.2718 14.7376C10.2898 14.6961 10.3162 14.6586 10.3494 14.6273C10.3826 14.5959 10.4219 14.5714 10.465 14.5552C10.5081 14.5389 10.5541 14.5312 10.6003 14.5327L15.9928 14.5369C15.5496 13.5283 15.4844 12.499 16.0903 11.509L10.6003 11.5047C10.5541 11.5061 10.5081 11.4985 10.465 11.4822C10.4219 11.466 10.3826 11.4415 10.3494 11.4101C10.3162 11.3788 10.2898 11.3413 10.2718 11.2998C10.2538 11.2584 10.2445 11.2138 10.2445 11.1688C10.2445 11.1238 10.2538 11.0792 10.2718 11.0377C10.2898 10.9963 10.3162 10.9588 10.3494 10.9274C10.3826 10.8961 10.4219 10.8716 10.465 10.8553C10.5081 10.8391 10.5541 10.8314 10.6003 10.8328L16.6147 10.8377C16.6537 10.7972 16.6937 10.7563 16.7354 10.7157H16.734ZM18.6254 14.8819C18.579 14.8833 18.5328 14.8756 18.4895 14.8593C18.4463 14.8429 18.4068 14.8183 18.3735 14.7869C18.3402 14.7554 18.3137 14.7178 18.2956 14.6761C18.2775 14.6345 18.2682 14.5898 18.2682 14.5446C18.2682 14.4994 18.2775 14.4547 18.2956 14.4131C18.3137 14.3714 18.3402 14.3338 18.3735 14.3023C18.4068 14.2709 18.4463 14.2463 18.4895 14.2299C18.5328 14.2136 18.579 14.2059 18.6254 14.2073H20.1152L20.8732 13.202C20.9101 13.1528 20.96 13.1143 21.0176 13.0906C21.0752 13.0669 21.1383 13.0589 21.2002 13.0675C21.2621 13.076 21.3204 13.1008 21.369 13.1391C21.4176 13.1774 21.4546 13.2279 21.476 13.2851L22.1766 15.1309L22.7094 14.3589C22.741 14.313 22.7837 14.2754 22.8338 14.2494C22.8838 14.2235 22.9397 14.2099 22.9964 14.21H24.8494C24.9394 14.2127 25.0247 14.2494 25.0874 14.3124C25.15 14.3753 25.1851 14.4595 25.1851 14.5472C25.1851 14.6349 25.15 14.7191 25.0874 14.7821C25.0247 14.845 24.9394 14.8817 24.8494 14.8845H23.1792L22.3842 16.0358C22.351 16.0908 22.3024 16.1355 22.2441 16.1646C22.1858 16.1937 22.1203 16.2061 22.055 16.2004C21.9898 16.1946 21.9276 16.1709 21.8756 16.1321C21.8237 16.0932 21.7841 16.0407 21.7616 15.9808L21.0493 14.1065L20.5812 14.7284C20.55 14.7764 20.5067 14.816 20.4556 14.8434C20.4044 14.8708 20.347 14.8851 20.2886 14.8851L18.6254 14.8819Z" fill="white"/>
</g>
<defs>
<clipPath id="clip0_443_198">
<rect width="28" height="30" fill="white"/>
</clipPath>
</defs>
</svg>
