<svg width="40" height="14" viewBox="0 0 40 14" fill="none" xmlns="http://www.w3.org/2000/svg">
<path fill-rule="evenodd" clip-rule="evenodd" d="M0.578308 3.9534C1.50035 1.95768 3.38043 0.469669 5.48456 0.0701753C5.80879 0.00861891 6.25445 -0.0110071 6.94771 0.0056904C8.16364 0.0350356 8.86605 0.195468 9.82111 0.661938C12.3756 1.90964 13.883 4.54871 13.6389 7.34623C13.4812 9.15342 12.4791 10.9286 10.9663 12.0806C10.3946 12.516 9.31177 13.0311 8.56762 13.2217C7.4229 13.5151 5.99284 13.4976 4.89168 13.1771C2.36133 12.4404 0.424106 10.2491 0.0590046 7.71052C-0.112456 6.51833 0.0985048 4.99182 0.578308 3.9534ZM14.7046 6.68686C14.7046 4.65363 14.7233 2.97142 14.7461 2.94862C14.7689 2.92575 15.2163 2.90706 15.7401 2.90706H16.6926L16.9727 3.7949C17.1268 4.28317 17.5211 5.55187 17.8488 6.61415C18.1766 7.67644 18.4606 8.58763 18.4801 8.63904C18.4994 8.69044 18.7376 8.00353 19.0091 7.11259C19.2807 6.22164 19.6893 4.91282 19.917 4.20411L20.3312 2.91554L21.3029 2.92688L22.2745 2.93822V6.67646V10.4147L21.6122 10.4323C21.0297 10.4478 20.9448 10.4368 20.9081 10.3412C20.8852 10.2813 20.8748 9.16033 20.8851 7.85008C20.8954 6.53976 20.8872 5.48732 20.8668 5.51137C20.8465 5.53536 20.474 6.64144 20.039 7.96927L19.2483 10.3835H18.5163H17.7844L16.9818 7.95369C16.5405 6.61727 16.1629 5.52383 16.1429 5.52383C16.1228 5.52377 16.1143 6.61721 16.124 7.95369L16.1415 10.3835H15.4231H14.7046V6.68686ZM9.37757 5.05655L10.0162 4.10642C10.3674 3.58387 10.633 3.15628 10.6063 3.15628C10.5797 3.15628 10.3623 3.25011 10.1235 3.36475C9.51601 3.65633 8.78898 4.24903 8.59864 4.60784C8.40525 4.97238 8.45553 5.03007 8.97988 5.04515L9.37757 5.05655ZM7.72651 4.55183C7.72651 4.44448 7.67611 4.31376 7.61256 4.25626C7.51081 4.16417 7.24895 4.15314 5.16345 4.15314C2.62363 4.15314 2.60201 4.15601 2.60201 4.49582C2.60201 4.82933 2.6587 4.83843 4.73224 4.83905L6.63619 4.83961L4.62689 6.8177C2.50973 8.9019 2.45515 8.97118 2.73154 9.22126C2.83508 9.31497 3.21221 9.32438 6.8651 9.32438C10.6801 9.32438 10.8899 9.31859 10.9878 9.21043C11.1264 9.05722 11.1178 8.85286 10.9663 8.70134C10.8504 8.58545 10.7576 8.57661 9.64236 8.57536C8.74679 8.57432 8.4579 8.57587 8.27223 8.43822C8.18073 8.37038 8.1143 8.26873 8.01267 8.1163C7.9131 7.96694 7.84294 7.87169 7.86554 7.81097C7.90736 7.69862 8.26673 7.70447 9.34498 7.70447H10.8388L10.942 7.54709C11.169 7.20056 10.8654 6.34755 10.3504 5.88501C9.9712 5.54446 9.56598 5.39854 9.00038 5.39891C8.48363 5.39929 8.07467 5.57094 7.69872 5.9452C7.29026 6.35185 7.14104 6.72032 7.13761 7.33065C7.13506 7.77943 7.16023 7.91494 7.30253 8.21848L7.47038 8.57673H5.683H3.89556L5.81104 6.66051C7.49655 4.97437 7.72651 4.72117 7.72651 4.55183ZM23.2589 6.39671C23.55 5.80003 24.2464 5.2548 24.9731 5.05468C25.3848 4.94129 26.086 4.94534 26.4843 5.06341C26.9725 5.2082 27.2672 5.37287 27.6078 5.69149C28.2019 6.24718 28.4738 6.88331 28.4738 7.71756V8.1406H26.3866C24.8022 8.1406 24.3561 8.12836 24.3059 8.26341C24.2825 8.32624 24.3448 8.42097 24.4179 8.56365C24.8305 9.36812 25.9762 9.61353 26.739 9.0609L27.0071 8.86669L27.5631 8.93685C27.8688 8.97548 28.1469 9.03491 28.181 9.06906C28.2595 9.1475 28.114 9.37584 27.7603 9.72961C27.2385 10.2514 26.5785 10.5088 25.766 10.5074C23.5866 10.5037 22.2913 8.37991 23.2589 6.39671ZM30.6819 5.36658C30.7999 5.27661 31.0312 5.15032 31.1959 5.08596C31.6092 4.92447 32.293 4.92522 32.727 5.08758C33.1451 5.24403 33.4052 5.43486 33.6728 5.78146C34.0448 6.26332 34.0811 6.50949 34.0811 8.54795V10.3656L33.5933 10.4063C33.3251 10.4287 33.0167 10.4292 32.908 10.4075L32.7104 10.368V8.62876C32.7104 7.00966 32.7018 6.87259 32.5852 6.64412C32.187 5.86358 30.7622 5.99205 30.5295 6.82948C30.4958 6.95091 30.468 7.8003 30.4679 8.71692L30.4675 10.3835H29.7821H29.0968V7.74292C29.0968 5.2801 29.1041 5.10035 29.2058 5.07443C29.2658 5.05911 29.5742 5.05923 29.8912 5.07475L30.4675 5.10297V5.31655V5.53019L30.6819 5.36658ZM35.0075 5.09742L35.1518 5.07431C35.2941 5.05144 35.4163 5.05163 36.0593 5.07556L36.3864 5.08771V6.78786C36.3864 8.42727 36.3914 8.49792 36.5265 8.76551C36.9239 9.5521 38.0235 9.58618 38.4702 8.82576C38.5897 8.62221 38.5994 8.49187 38.6173 6.84779L38.6364 5.08771H39.3182H40V7.73563V10.3835H39.3458H38.6916V10.187C38.6916 10.0022 38.6849 9.99645 38.5803 10.0912C38.3016 10.3434 37.8657 10.4723 37.2898 10.473C36.9814 10.4733 36.6125 10.4389 36.47 10.3966C35.8849 10.2226 35.3235 9.67334 35.1307 9.08619C35.0812 8.93529 35.0473 8.21537 35.0315 6.97726L35.0075 5.09742ZM7.99162 6.69677C8.15423 6.43061 8.40637 6.21896 8.64718 6.14638C9.08692 6.01392 9.56136 6.12226 9.90634 6.43391C10.0381 6.55297 10.1749 6.73334 10.2102 6.83477L10.2745 7.01913H9.06281C8.3964 7.01913 7.85124 6.99813 7.85143 6.9724C7.85162 6.94667 7.91467 6.82268 7.99162 6.69677ZM27.1031 7.14062C27.1031 6.8144 26.6692 6.33266 26.2383 6.1807C25.7752 6.01728 25.2634 6.086 24.8303 6.36973C24.6652 6.47796 24.3011 7.04143 24.2999 7.19047C24.2995 7.25046 24.621 7.26835 25.7012 7.26835C27.0728 7.26835 27.1031 7.26561 27.1031 7.14062Z" fill="#14C871"/>
</svg>
