<svg width="36" height="36" viewBox="0 0 36 36" fill="none" xmlns="http://www.w3.org/2000/svg">
<g clip-path="url(#clip0_263_65)">
<path d="M17.3329 11.3376L17.3482 12.3683C17.349 12.4199 17.3701 12.4564 17.4117 12.4778C17.8713 12.7172 18.2309 13.0616 18.4905 13.5111C18.5172 13.5565 18.549 13.5623 18.5858 13.5285C18.8643 13.2766 18.9776 12.9357 18.9258 12.5058" stroke="#805B00" stroke-width="2"/>
<path d="M18.9259 12.5058C18.9267 10.9277 18.9259 9.35146 18.9235 7.77696C18.9224 7.34973 18.9306 6.97057 18.5977 6.75295C18.0871 6.41651 17.3212 6.69021 17.3247 7.43651C17.331 8.71641 17.3337 10.0168 17.333 11.3376" stroke="#806C00" stroke-width="2"/>
<path d="M18.9258 12.5058C18.929 12.488 18.9258 12.4751 18.9164 12.4671C18.9094 12.4618 18.9019 12.4613 18.8941 12.4658L18.8564 12.4858C18.8399 12.4947 18.8243 12.4933 18.8094 12.4818L17.3329 11.3376" stroke="#FFC700" stroke-width="2"/>
<path d="M8.51172 21.049C8.51172 22.8736 8.51172 24.7449 8.51172 26.663C8.51054 27.4907 9.28701 27.9727 9.91407 27.5949C10.2474 27.3946 10.4133 27.0613 10.4117 26.5949C10.4062 25.2625 10.4066 22.8638 10.4129 19.3988" stroke="#805B00" stroke-width="2"/>
<path d="M10.413 19.3988C10.4082 17.0473 10.4086 14.6842 10.4141 12.3096C10.4153 11.7421 10.0153 11.2749 9.5306 11.2348C8.98472 11.1908 8.51177 11.6714 8.51177 12.2922C8.50942 15.1644 8.50942 18.0833 8.51177 21.049" stroke="#806C00" stroke-width="2"/>
<path d="M10.4129 19.3988L8.51172 21.049" stroke="#FFC700" stroke-width="2"/>
<path d="M25.5518 19.3601C25.5518 21.8549 25.5537 24.2999 25.5576 26.695C25.5588 27.3719 26.12 27.8365 26.68 27.711C27.1914 27.5971 27.4486 27.2362 27.4518 26.6283C27.462 24.6773 27.4674 22.7485 27.4682 20.842" stroke="#805B00" stroke-width="2"/>
<path d="M27.4682 20.842C27.469 17.9689 27.4663 15.1186 27.46 12.2909C27.4577 11.5539 26.82 11.0719 26.2271 11.2922C25.5024 11.5619 25.5506 12.164 25.5506 12.8916C25.5506 15.091 25.551 17.2471 25.5518 19.3601" stroke="#806C00" stroke-width="2"/>
<path d="M27.4682 20.842C26.8588 20.292 26.22 19.798 25.5518 19.3601" stroke="#FFC700" stroke-width="2"/>
<path d="M5.31651 21.0984C5.30318 21.9448 5.29886 22.838 5.30357 23.7779C5.30592 24.3373 5.23887 24.7845 5.71181 25.1477C6.3271 25.6203 7.15181 25.2491 7.16239 24.376C7.17494 23.1949 7.1773 21.6079 7.16945 19.6151" stroke="#805B00" stroke-width="2"/>
<path d="M7.16942 19.6151C7.17648 17.9249 7.18158 16.2365 7.18472 14.5498C7.18472 14.1342 7.03374 13.8262 6.73178 13.6259C6.44629 13.4372 6.15256 13.4297 5.8506 13.6032C5.47256 13.8213 5.28511 14.1693 5.28825 14.6473C5.30315 16.738 5.31256 18.8884 5.31648 21.0984" stroke="#806C00" stroke-width="2"/>
<path d="M7.16947 19.6151C6.81574 19.8029 6.57025 19.9791 6.433 20.1438C6.10202 20.539 5.72986 20.8572 5.31653 21.0984" stroke="#FFC700" stroke-width="2"/>
<path d="M28.7894 21.8073C28.7839 22.6528 28.7772 23.4806 28.7694 24.2905C28.7655 24.6466 28.887 24.9278 29.1341 25.1343C29.7011 25.6069 30.6117 25.2772 30.6306 24.4094C30.64 23.9332 30.6411 23.5153 30.6341 23.1557" stroke="#805B00" stroke-width="2"/>
<path d="M30.6342 23.1557C30.6389 20.2275 30.6416 17.3584 30.6424 14.5485C30.6424 13.1333 28.7977 13.1627 28.793 14.4791C28.7859 16.9392 28.7847 19.3819 28.7894 21.8073" stroke="#806C00" stroke-width="2"/>
<path d="M30.6341 23.1557L28.7894 21.8073" stroke="#FFC700" stroke-width="2"/>
<path d="M11.7753 19.6939C11.7487 19.9297 11.7577 20.1425 11.8024 20.332C11.8134 20.3774 11.8396 20.4001 11.8812 20.4001L15.9153 20.3975C15.941 20.3976 15.9659 20.3867 15.985 20.367C16.0042 20.3472 16.0162 20.32 16.0189 20.2907C16.1263 19.0722 16.2871 17.969 16.5012 16.981C16.5577 16.7202 16.5973 16.7238 16.62 16.9917C16.9306 20.5817 17.0647 24.3226 17.3671 27.9073C17.422 28.5535 17.7185 28.8992 18.2565 28.9446C18.7236 28.9847 19.0636 28.6175 19.1694 28.1342C19.3471 27.3238 19.3718 26.4574 19.4906 25.6336C19.6161 24.7676 19.7153 23.9973 19.7883 23.3226C20.0181 21.2043 20.2396 19.0753 20.453 16.9356C20.4647 16.8217 20.4902 16.8177 20.5294 16.9236C20.5592 17.0037 20.5804 17.0878 20.593 17.1759C20.6981 17.9333 20.7777 18.7371 20.8318 19.5871C20.8467 19.8256 20.8757 20.0735 20.9189 20.3307C20.9267 20.377 20.9514 20.4001 20.993 20.4001L24.0977 20.3961C24.1262 20.3958 24.1534 20.3827 24.1735 20.3597C24.1935 20.3367 24.2047 20.3056 24.2047 20.2733L24.2059 19.7539" stroke="#805B00" stroke-width="2"/>
<path d="M24.2058 19.7539L24.207 18.8327C24.2073 18.8065 24.1983 18.7813 24.182 18.7625C24.1657 18.7437 24.1433 18.733 24.1199 18.7326L21.9988 18.7246C21.9723 18.7242 21.9468 18.7129 21.927 18.6929C21.9071 18.6728 21.8942 18.6452 21.8905 18.6151C21.747 17.3762 21.5717 16.111 21.3647 14.8195C21.3168 14.5213 21.1678 14.273 20.9176 14.0745C20.6831 13.8885 20.4537 13.8404 20.2294 13.9303C19.7129 14.1373 19.5188 14.6112 19.4623 15.2267C19.3713 16.2147 19.2364 17.4621 19.0576 18.9689C18.9517 19.867 18.8541 21.0183 18.7647 22.4228C18.7482 22.688 18.7082 23.0534 18.6447 23.5189" stroke="#806C00" stroke-width="2"/>
<path d="M18.6447 23.5189L18.5153 24.5936C18.5114 24.6212 18.4977 24.6377 18.4741 24.643C18.4616 24.6466 18.4506 24.643 18.4412 24.6323C18.4263 24.6163 18.4181 24.5972 18.4165 24.5749C18.382 24.1495 18.3322 23.7525 18.2671 23.384" stroke="#805B00" stroke-width="2"/>
<path d="M18.267 23.384C18.0827 20.6854 17.8674 18.0148 17.6212 15.3722C17.611 15.2627 17.6039 15.1519 17.6 15.0398C17.5827 14.6028 17.4129 14.2614 17.0906 14.0158C16.5423 13.5966 15.6717 13.945 15.5576 14.722C15.3412 16.1924 15.178 17.507 15.0682 18.6659C15.0643 18.7095 15.0427 18.7313 15.0035 18.7313L11.8917 18.7259C11.8629 18.7259 11.8353 18.7388 11.8148 18.7618C11.7943 18.7848 11.7826 18.8161 11.7823 18.8488L11.7753 19.6939" stroke="#806C00" stroke-width="2"/>
<path d="M18.267 23.384C18.1925 23.4891 18.0596 23.4468 17.8682 23.2572C17.6929 23.085 17.6647 22.8206 17.647 22.5763C17.6031 21.9826 17.5655 21.3601 17.5341 20.7085C17.4862 19.717 17.3161 17.9405 17.0235 15.3789C16.9953 15.1319 16.8823 14.8569 16.6306 14.8395C16.3059 14.8155 16.1231 14.9842 16.0823 15.3455C15.9913 16.1564 15.867 17.0678 15.7094 18.0798C15.6341 18.5657 15.5725 19.0593 15.5247 19.5604C15.5221 19.5872 15.5109 19.6121 15.4933 19.6301C15.4757 19.6481 15.4529 19.658 15.4294 19.6578L11.7753 19.6939" stroke="#FFC700" stroke-width="2"/>
<path d="M24.2058 19.7539C23.3109 19.6667 22.4298 19.6476 21.5623 19.6965C21.5329 19.6982 21.5041 19.6875 21.4815 19.6665C21.4588 19.6455 21.444 19.6158 21.4399 19.5831C21.3647 18.9956 21.3015 18.4175 21.2505 17.8488C21.1694 16.9476 20.9752 16.1292 20.8599 15.2627C20.8152 14.9316 20.5764 14.7848 20.3176 14.9357C20.0999 15.0625 20.0788 15.3976 20.0505 15.6392C19.9352 16.6459 19.8243 17.6454 19.7176 18.6378C19.5999 19.7379 19.3564 21.3374 19.2705 22.6671C19.2399 23.1281 19.0313 23.4121 18.6447 23.5189" stroke="#FFC700" stroke-width="2"/>
<path d="M4.02236 17.9236C4.02236 17.6768 3.93596 17.4401 3.78218 17.2656C3.6284 17.091 3.41983 16.993 3.20236 16.993H3.13177C2.91429 16.993 2.70572 17.091 2.55194 17.2656C2.39816 17.4401 2.31177 17.6768 2.31177 17.9236V20.7112C2.31177 20.958 2.39816 21.1947 2.55194 21.3692C2.70572 21.5437 2.91429 21.6417 3.13177 21.6417H3.20236C3.41983 21.6417 3.6284 21.5437 3.78218 21.3692C3.93596 21.1947 4.02236 20.958 4.02236 20.7112V17.9236Z" stroke="#805B00" stroke-width="2"/>
<path d="M31.9494 18.4883C31.9455 19.2706 31.9514 20.025 31.9671 20.7513C31.9929 21.9782 33.6435 21.9542 33.6635 20.7205C33.6682 20.3886 33.6686 20.0686 33.6647 19.7606" stroke="#805B00" stroke-width="2"/>
<path d="M33.6647 19.7606C33.6671 19.2462 33.6671 18.7388 33.6647 18.2386C33.6623 17.9084 33.6372 17.6766 33.5894 17.5431C33.2823 16.6966 32.0141 16.8809 31.9506 17.8461C31.9404 18.0054 31.94 18.2195 31.9494 18.4883" stroke="#806C00" stroke-width="2"/>
<path d="M33.6648 19.7606C33.5706 19.7838 33.4746 19.7304 33.3765 19.6004C33.284 19.4767 33.2134 19.3939 33.1648 19.3521C32.7828 19.0219 32.3777 18.7339 31.9495 18.4883" stroke="#FFC700" stroke-width="2"/>
<path d="M7.15764 27.0288C7.15868 27.0163 7.15734 27.0036 7.15372 26.9918C7.1501 26.9799 7.14428 26.9691 7.13667 26.9601C7.12906 26.951 7.11984 26.944 7.10964 26.9395C7.09945 26.935 7.08853 26.9332 7.07764 26.934C6.27411 26.9874 5.51176 26.9701 4.88117 26.3773C4.42313 25.9465 4.14313 25.4441 4.04117 24.87C3.94823 24.3466 3.98352 23.834 3.97529 23.3133C3.9745 23.259 3.95019 23.2332 3.90234 23.2358C3.69685 23.2465 3.49293 23.2523 3.29058 23.2532C2.05293 23.2545 1.02234 22.3667 0.999992 20.8914C0.984306 19.8981 0.979992 18.8279 0.987051 17.6806C0.988619 17.5248 1.02156 17.3214 1.08587 17.0704C1.13764 16.8684 1.22038 16.6886 1.33411 16.5311C1.46431 16.3531 1.59842 16.1973 1.73646 16.0638C2.40823 15.4163 3.07999 15.4243 3.90352 15.4697C3.91324 15.4702 3.92295 15.4685 3.93207 15.4647C3.94119 15.4608 3.94952 15.4549 3.95656 15.4473C3.96361 15.4397 3.96921 15.4305 3.97304 15.4204C3.97686 15.4102 3.97883 15.3993 3.97882 15.3882C3.97999 14.9423 3.94823 14.4991 4.03293 14.0638C4.15293 13.4515 4.42234 12.9388 4.84117 12.5258C5.46352 11.913 6.28823 11.9317 7.05293 11.9504C7.10078 11.9513 7.1298 11.9251 7.13999 11.8717C7.28744 11.1098 7.59568 10.5499 8.0647 10.1921C8.75803 9.66432 9.50548 9.5495 10.3071 9.84767C11.1965 10.1774 11.7635 11.3176 11.7623 12.3523C11.7608 13.9286 11.7604 15.4955 11.7612 17.0531C11.7612 17.0796 11.7705 17.1051 11.787 17.1239C11.8036 17.1427 11.826 17.1532 11.8494 17.1532L13.8835 17.1425C13.8934 17.1424 13.903 17.1385 13.9105 17.1314C13.918 17.1244 13.923 17.1146 13.9247 17.1038C14.0447 16.3544 14.1616 15.5155 14.2753 14.5872C14.3208 14.2178 14.4553 13.8169 14.6788 13.3843C14.9463 12.869 15.3835 12.5196 15.9906 12.3363C16.0044 12.3321 16.0166 12.3228 16.0254 12.3098C16.0341 12.2967 16.0388 12.2807 16.0388 12.2642C16.0451 10.7288 16.0431 9.11471 16.0329 7.42183C16.0306 7.07649 16.0655 6.77343 16.1376 6.51265C16.247 6.11746 16.5929 5.54204 16.9565 5.32843C17.5659 4.97197 18.2553 4.78105 18.9059 5.13485C19.1259 5.25367 19.3623 5.32843 19.5506 5.51668C20.0788 6.04537 20.2623 6.67419 20.2553 7.53799C20.2412 9.12584 20.2396 10.6839 20.2506 12.2121C20.2505 12.2215 20.2522 12.2307 20.2556 12.2393C20.259 12.2478 20.2639 12.2555 20.2701 12.2618C20.2763 12.2681 20.2837 12.2729 20.2917 12.2758C20.2996 12.2788 20.3081 12.2798 20.3165 12.2788C20.4835 12.261 20.6478 12.2806 20.8094 12.3376C21.7341 12.6634 22.3141 13.3202 22.5494 14.3082C22.649 14.7256 22.7188 15.3366 22.7588 16.1412C22.7741 16.4576 22.86 16.7741 22.8941 17.0918C22.8961 17.111 22.9042 17.1287 22.9168 17.1415C22.9294 17.1543 22.9456 17.1613 22.9623 17.1612L24.1212 17.1599C24.1346 17.1599 24.1479 17.1569 24.1603 17.1511C24.1728 17.1452 24.184 17.1367 24.1935 17.1259C24.203 17.1151 24.2106 17.1023 24.2157 17.0882C24.2209 17.0741 24.2235 17.059 24.2235 17.0437C24.2212 15.4808 24.218 13.9272 24.2141 12.383C24.2125 11.8748 24.3431 11.3416 24.6059 10.7836C24.7082 10.5659 24.9729 10.2575 25.1588 10.1347C26.6294 9.17346 28.487 9.82765 28.7847 11.8596C28.7884 11.8855 28.8 11.9091 28.8175 11.926C28.835 11.9429 28.8572 11.952 28.88 11.9518C29.6847 11.9411 30.5247 11.913 31.1812 12.5606C31.6133 12.986 31.8796 13.5236 31.98 14.1733C32.0388 14.5538 31.9988 14.9957 32.0094 15.3909C32.01 15.4133 32.0183 15.4346 32.0324 15.4501C32.0464 15.4656 32.0652 15.474 32.0847 15.4737C32.5835 15.4643 33.1682 15.3842 33.6341 15.6232C34.2592 15.9428 34.6721 16.4394 34.8729 17.1132C34.9843 17.4843 35.0318 17.9965 35.0153 18.6498C34.9996 19.2569 34.9992 19.8349 35.0141 20.3841C35.0329 21.0637 34.9235 21.6511 34.5623 22.2345C33.9365 23.2452 33.0859 23.2812 32.08 23.2358C32.0321 23.2341 32.0082 23.2603 32.0082 23.3146C32.0082 24.137 32.0882 24.9421 31.6647 25.6684C31.1502 26.5522 30.4067 26.9794 29.4341 26.95C29.2435 26.9438 29.0467 26.9407 28.8435 26.9407C28.7988 26.9416 28.7745 26.9674 28.7706 27.0181C28.718 27.7969 28.4004 28.4075 27.8176 28.8498C26.7459 29.6642 25.2423 29.3625 24.5906 28.0795C24.3376 27.5842 24.207 27.1263 24.2106 26.5361C24.2208 25.0026 24.2227 23.5118 24.2165 22.0636C24.2162 22.0366 24.2063 22.0108 24.1892 21.9918C24.172 21.9728 24.1488 21.9622 24.1247 21.9622L21.2094 21.9675C21.2022 21.9675 21.1952 21.9704 21.1898 21.9758C21.1843 21.9812 21.1809 21.9887 21.18 21.9969C21.0106 23.1677 20.86 24.3266 20.7776 25.5322C20.7133 26.481 20.5847 27.529 20.3918 28.6763C20.3157 29.124 20.1294 29.4978 19.8329 29.7977C19.2227 30.4154 18.5451 30.6402 17.8 30.472C16.8118 30.249 16.0906 29.2157 16.0765 28.0848C16.0506 26.0569 15.8153 23.9394 15.707 22.0022C15.7067 21.9925 15.703 21.9834 15.6966 21.9766C15.6903 21.9699 15.6818 21.9662 15.6729 21.9662H11.8423C11.7961 21.9662 11.7729 21.992 11.7729 22.0436C11.758 23.4054 11.7561 24.829 11.7671 26.3145C11.771 26.8014 11.7157 27.205 11.6012 27.5254C10.7353 29.9673 8.13411 29.8391 7.22823 27.5241C7.16627 27.3648 7.14274 27.1997 7.15764 27.0288ZM17.3329 11.3376L17.3482 12.3683C17.349 12.4199 17.3702 12.4564 17.4118 12.4778C17.8714 12.7172 18.231 13.0617 18.4906 13.5111C18.5172 13.5565 18.549 13.5623 18.5859 13.5285C18.8643 13.2766 18.9776 12.9357 18.9259 12.5058C18.9267 10.9278 18.9259 9.35147 18.9235 7.77697C18.9223 7.34974 18.9306 6.97058 18.5976 6.75296C18.087 6.41652 17.3212 6.69021 17.3247 7.43652C17.331 8.71642 17.3337 10.0168 17.3329 11.3376ZM8.51176 21.049C8.51176 22.8736 8.51176 24.7449 8.51176 26.663C8.51058 27.4907 9.28705 27.9727 9.91411 27.5949C10.2474 27.3946 10.4133 27.0613 10.4118 26.5949C10.4063 25.2625 10.4067 22.8638 10.4129 19.3988C10.4082 17.0473 10.4086 14.6842 10.4141 12.3096C10.4153 11.7421 10.0153 11.2749 9.53058 11.2348C8.9847 11.1908 8.51176 11.6714 8.51176 12.2922C8.5094 15.1644 8.5094 18.0833 8.51176 21.049ZM25.5518 19.3601C25.5518 21.8549 25.5537 24.2999 25.5576 26.695C25.5588 27.3719 26.12 27.8365 26.68 27.711C27.1914 27.5971 27.4486 27.2362 27.4518 26.6283C27.462 24.6773 27.4674 22.7485 27.4682 20.842C27.469 17.969 27.4663 15.1186 27.46 12.2909C27.4576 11.5539 26.82 11.0719 26.227 11.2922C25.5023 11.5619 25.5506 12.164 25.5506 12.8917C25.5506 15.091 25.551 17.2471 25.5518 19.3601ZM5.31646 21.0984C5.30313 21.9448 5.29882 22.838 5.30352 23.7779C5.30587 24.3373 5.23882 24.7845 5.71176 25.1477C6.32705 25.6203 7.15176 25.2491 7.16234 24.376C7.17489 23.1949 7.17725 21.6079 7.1694 19.6151C7.17646 17.9249 7.18156 16.2365 7.1847 14.5498C7.1847 14.1342 7.03372 13.8262 6.73176 13.6259C6.44627 13.4373 6.15254 13.4297 5.85058 13.6032C5.47254 13.8213 5.28509 14.1693 5.28823 14.6473C5.30313 16.738 5.31254 18.8884 5.31646 21.0984ZM28.7894 21.8073C28.7839 22.6529 28.7772 23.4806 28.7694 24.2906C28.7655 24.6466 28.8871 24.9278 29.1341 25.1343C29.7012 25.6069 30.6118 25.2772 30.6306 24.4094C30.64 23.9332 30.6412 23.5153 30.6341 23.1557C30.6388 20.2275 30.6416 17.3584 30.6423 14.5485C30.6423 13.1333 28.7976 13.1627 28.7929 14.4791C28.7859 16.9392 28.7847 19.3819 28.7894 21.8073ZM11.7753 19.6939C11.7486 19.9297 11.7576 20.1425 11.8023 20.332C11.8133 20.3774 11.8396 20.4001 11.8812 20.4001L15.9153 20.3975C15.941 20.3976 15.9659 20.3867 15.985 20.367C16.0041 20.3472 16.0162 20.32 16.0188 20.2907C16.1263 19.0722 16.287 17.969 16.5012 16.981C16.5576 16.7202 16.5972 16.7238 16.62 16.9917C16.9306 20.5817 17.0647 24.3226 17.367 27.9073C17.4219 28.5535 17.7184 28.8992 18.2565 28.9446C18.7235 28.9847 19.0635 28.6175 19.1694 28.1342C19.347 27.3238 19.3718 26.4574 19.4906 25.6336C19.6161 24.7676 19.7153 23.9973 19.7882 23.3226C20.018 21.2043 20.2396 19.0753 20.4529 16.9356C20.4647 16.8217 20.4902 16.8177 20.5294 16.9236C20.5592 17.0037 20.5804 17.0878 20.5929 17.1759C20.698 17.9334 20.7776 18.7371 20.8318 19.5871C20.8467 19.8256 20.8757 20.0735 20.9188 20.3307C20.9267 20.377 20.9514 20.4001 20.9929 20.4001L24.0976 20.3961C24.1261 20.3958 24.1534 20.3827 24.1734 20.3597C24.1935 20.3367 24.2047 20.3056 24.2047 20.2733L24.2059 19.754L24.207 18.8327C24.2074 18.8065 24.1984 18.7813 24.182 18.7625C24.1657 18.7437 24.1434 18.733 24.12 18.7326L21.9988 18.7246C21.9724 18.7242 21.9469 18.7129 21.927 18.6929C21.9072 18.6728 21.8942 18.6452 21.8906 18.6151C21.747 17.3762 21.5718 16.111 21.3647 14.8195C21.3169 14.5213 21.1678 14.273 20.9176 14.0745C20.6831 13.8885 20.4537 13.8404 20.2294 13.9303C19.7129 14.1373 19.5188 14.6112 19.4623 15.2267C19.3714 16.2147 19.2365 17.4621 19.0576 18.9689C18.9518 19.867 18.8541 21.0183 18.7647 22.4228C18.7482 22.688 18.7082 23.0534 18.6447 23.5189L18.5153 24.5936C18.5114 24.6212 18.4976 24.6377 18.4741 24.643C18.4616 24.6466 18.4506 24.643 18.4412 24.6323C18.4263 24.6163 18.418 24.5972 18.4165 24.5749C18.382 24.1495 18.3321 23.7525 18.267 23.384C18.0827 20.6854 17.8674 18.0148 17.6212 15.3722C17.611 15.2627 17.6039 15.1519 17.6 15.0398C17.5827 14.6028 17.4129 14.2614 17.0906 14.0158C16.5423 13.5966 15.6718 13.945 15.5576 14.722C15.3412 16.1924 15.178 17.507 15.0682 18.6659C15.0643 18.7095 15.0427 18.7313 15.0035 18.7313L11.8918 18.7259C11.8629 18.7259 11.8353 18.7388 11.8148 18.7618C11.7943 18.7848 11.7827 18.8161 11.7823 18.8488L11.7753 19.6939ZM4.02235 17.9236C4.02235 17.6768 3.93595 17.4401 3.78217 17.2656C3.62839 17.0911 3.41982 16.993 3.20234 16.993H3.13176C2.91428 16.993 2.70571 17.0911 2.55193 17.2656C2.39815 17.4401 2.31176 17.6768 2.31176 17.9236V20.7112C2.31176 20.958 2.39815 21.1947 2.55193 21.3692C2.70571 21.5437 2.91428 21.6418 3.13176 21.6418H3.20234C3.41982 21.6418 3.62839 21.5437 3.78217 21.3692C3.93595 21.1947 4.02235 20.958 4.02235 20.7112V17.9236ZM31.9494 18.4883C31.9455 19.2707 31.9514 20.025 31.9671 20.7513C31.9929 21.9782 33.6435 21.9542 33.6635 20.7205C33.6682 20.3886 33.6686 20.0686 33.6647 19.7606C33.667 19.2462 33.667 18.7388 33.6647 18.2386C33.6623 17.9084 33.6372 17.6766 33.5894 17.5431C33.2823 16.6966 32.0141 16.8809 31.9506 17.8461C31.9404 18.0054 31.94 18.2195 31.9494 18.4883Z" fill="black"/>
<path d="M18.9259 12.5058C18.929 12.488 18.9259 12.4751 18.9165 12.4671C18.9094 12.4618 18.902 12.4613 18.8941 12.4658L18.8565 12.4858C18.84 12.4947 18.8243 12.4933 18.8094 12.4818L17.333 11.3376C17.3337 10.0168 17.331 8.71641 17.3247 7.43651C17.3212 6.69021 18.0871 6.41651 18.5977 6.75295C18.9306 6.97057 18.9224 7.34973 18.9235 7.77696C18.9259 9.35146 18.9267 10.9277 18.9259 12.5058Z" fill="#FFD800"/>
<path d="M10.413 19.3988L8.51177 21.049C8.50942 18.0833 8.50942 15.1644 8.51177 12.2922C8.51177 11.6714 8.98472 11.1908 9.5306 11.2348C10.0153 11.2749 10.4153 11.7421 10.4141 12.3096C10.4086 14.6842 10.4082 17.0473 10.413 19.3988Z" fill="#FFD800"/>
<path d="M27.4682 20.842C26.8588 20.292 26.22 19.798 25.5518 19.3601C25.551 17.2471 25.5506 15.091 25.5506 12.8916C25.5506 12.164 25.5024 11.5619 26.2271 11.2922C26.82 11.0719 27.4577 11.5539 27.46 12.2909C27.4663 15.1186 27.469 17.9689 27.4682 20.842Z" fill="#FFD800"/>
<path d="M18.9258 12.5058C18.9776 12.9357 18.8643 13.2766 18.5858 13.5285C18.549 13.5623 18.5172 13.5565 18.4905 13.5111C18.2309 13.0616 17.8713 12.7172 17.4117 12.4778C17.3701 12.4564 17.349 12.4199 17.3482 12.3683L17.3329 11.3376L18.8094 12.4818C18.8243 12.4933 18.8399 12.4947 18.8564 12.4858L18.8941 12.4658C18.9019 12.4613 18.9094 12.4618 18.9164 12.4671C18.9258 12.4751 18.929 12.488 18.9258 12.5058Z" fill="#FFB500"/>
<path d="M7.16942 19.6151C6.8157 19.8029 6.57021 19.9791 6.43295 20.1438C6.10197 20.539 5.72982 20.8572 5.31648 21.0984C5.31256 18.8884 5.30315 16.738 5.28825 14.6473C5.28511 14.1693 5.47256 13.8213 5.8506 13.6032C6.15256 13.4297 6.44629 13.4373 6.73178 13.6259C7.03374 13.8262 7.18472 14.1342 7.18472 14.5498C7.18158 16.2365 7.17648 17.9249 7.16942 19.6151Z" fill="#FFD800"/>
<path d="M30.6342 23.1557L28.7894 21.8073C28.7847 19.3819 28.7859 16.9392 28.793 14.4791C28.7977 13.1627 30.6424 13.1333 30.6424 14.5485C30.6416 17.3584 30.6389 20.2275 30.6342 23.1557Z" fill="#FFD800"/>
<path d="M18.267 23.384C18.1925 23.4891 18.0596 23.4468 17.8682 23.2572C17.6929 23.085 17.6647 22.8206 17.647 22.5763C17.6031 21.9826 17.5655 21.3601 17.5341 20.7085C17.4862 19.717 17.3161 17.9405 17.0235 15.3789C16.9953 15.1319 16.8823 14.8569 16.6306 14.8395C16.3059 14.8155 16.1231 14.9842 16.0823 15.3455C15.9913 16.1564 15.867 17.0678 15.7094 18.0798C15.6341 18.5657 15.5725 19.0593 15.5247 19.5604C15.5221 19.5873 15.5109 19.6121 15.4933 19.6301C15.4757 19.6481 15.4529 19.658 15.4294 19.6578L11.7753 19.6939L11.7823 18.8488C11.7826 18.8161 11.7943 18.7848 11.8148 18.7618C11.8353 18.7388 11.8629 18.7259 11.8917 18.7259L15.0035 18.7313C15.0427 18.7313 15.0643 18.7095 15.0682 18.6659C15.178 17.507 15.3412 16.1924 15.5576 14.722C15.6717 13.945 16.5423 13.5966 17.0906 14.0158C17.4129 14.2614 17.5827 14.6028 17.6 15.0398C17.6039 15.1519 17.611 15.2628 17.6212 15.3722C17.8674 18.0148 18.0827 20.6854 18.267 23.384Z" fill="#FFD800"/>
<path d="M24.2058 19.7539C23.3109 19.6667 22.4298 19.6476 21.5623 19.6965C21.5329 19.6982 21.5041 19.6875 21.4815 19.6665C21.4588 19.6455 21.444 19.6158 21.4399 19.5831C21.3647 18.9956 21.3015 18.4175 21.2505 17.8488C21.1694 16.9476 20.9752 16.1292 20.8599 15.2627C20.8152 14.9316 20.5764 14.7848 20.3176 14.9357C20.0999 15.0625 20.0788 15.3976 20.0505 15.6392C19.9352 16.6459 19.8243 17.6454 19.7176 18.6378C19.5999 19.7379 19.3564 21.3374 19.2705 22.6671C19.2399 23.1281 19.0313 23.4121 18.6447 23.5189C18.7082 23.0534 18.7482 22.688 18.7647 22.4228C18.8541 21.0183 18.9517 19.867 19.0576 18.9689C19.2364 17.4621 19.3713 16.2147 19.4623 15.2267C19.5188 14.6112 19.7129 14.1373 20.2294 13.9303C20.4537 13.8404 20.6831 13.8885 20.9176 14.0745C21.1678 14.273 21.3168 14.5213 21.3647 14.8195C21.5717 16.111 21.747 17.3762 21.8905 18.6151C21.8942 18.6452 21.9071 18.6728 21.927 18.6929C21.9468 18.7129 21.9723 18.7242 21.9988 18.7246L24.1199 18.7326C24.1433 18.733 24.1657 18.7437 24.182 18.7625C24.1983 18.7813 24.2073 18.8065 24.207 18.8327L24.2058 19.7539Z" fill="#FFD800"/>
<path d="M18.2671 23.384C18.3322 23.7525 18.382 24.1495 18.4165 24.5749C18.4181 24.5972 18.4263 24.6163 18.4412 24.6323C18.4506 24.643 18.4616 24.6466 18.4741 24.643C18.4977 24.6377 18.5114 24.6212 18.5153 24.5936L18.6447 23.5189C19.0314 23.4121 19.24 23.1281 19.2706 22.6671C19.3565 21.3374 19.6 19.7379 19.7177 18.6378C19.8243 17.6454 19.9353 16.6459 20.0506 15.6392C20.0788 15.3976 20.1 15.0625 20.3177 14.9357C20.5765 14.7848 20.8153 14.9316 20.86 15.2627C20.9753 16.1292 21.1694 16.9476 21.2506 17.8488C21.3016 18.4175 21.3647 18.9956 21.44 19.5831C21.4441 19.6158 21.4589 19.6455 21.4815 19.6665C21.5042 19.6876 21.533 19.6983 21.5624 19.6965C22.4298 19.6476 23.311 19.6667 24.2059 19.754L24.2047 20.2733C24.2047 20.3056 24.1935 20.3367 24.1735 20.3597C24.1534 20.3827 24.1262 20.3958 24.0977 20.3961L20.993 20.4001C20.9514 20.4001 20.9267 20.377 20.9189 20.3307C20.8757 20.0735 20.8467 19.8256 20.8318 19.5871C20.7777 18.7371 20.6981 17.9334 20.593 17.1759C20.5804 17.0878 20.5592 17.0037 20.5294 16.9236C20.4902 16.8177 20.4647 16.8217 20.453 16.9356C20.2396 19.0753 20.0181 21.2043 19.7883 23.3226C19.7153 23.9973 19.6161 24.7676 19.4906 25.6336C19.3718 26.4574 19.3471 27.3238 19.1694 28.1342C19.0636 28.6175 18.7236 28.9847 18.2565 28.9446C17.7185 28.8992 17.422 28.5535 17.3671 27.9073C17.0647 24.3226 16.9306 20.5817 16.62 16.9917C16.5973 16.7238 16.5577 16.7202 16.5012 16.981C16.2871 17.969 16.1263 19.0722 16.0189 20.2907C16.0162 20.32 16.0042 20.3472 15.985 20.367C15.9659 20.3867 15.941 20.3976 15.9153 20.3975L11.8812 20.4001C11.8396 20.4001 11.8134 20.3774 11.8024 20.332C11.7577 20.1425 11.7487 19.9297 11.7753 19.6939L15.4294 19.6578C15.453 19.658 15.4757 19.6481 15.4933 19.6301C15.5109 19.6121 15.5221 19.5872 15.5247 19.5604C15.5726 19.0593 15.6341 18.5657 15.7094 18.0798C15.8671 17.0678 15.9914 16.1564 16.0824 15.3455C16.1232 14.9842 16.3059 14.8155 16.6306 14.8395C16.8824 14.8569 16.9953 15.1319 17.0236 15.3789C17.3161 17.9405 17.4863 19.717 17.5341 20.7085C17.5655 21.3601 17.6032 21.9826 17.6471 22.5763C17.6647 22.8206 17.693 23.085 17.8683 23.2572C18.0596 23.4468 18.1926 23.4891 18.2671 23.384Z" fill="#FFB500"/>
<path d="M3.20236 16.993H3.13177C2.67889 16.993 2.31177 17.4096 2.31177 17.9236V20.7112C2.31177 21.2251 2.67889 21.6418 3.13177 21.6418H3.20236C3.65523 21.6418 4.02236 21.2251 4.02236 20.7112V17.9236C4.02236 17.4096 3.65523 16.993 3.20236 16.993Z" fill="#FFB500"/>
<path d="M33.6647 19.7606C33.5706 19.7838 33.4745 19.7304 33.3765 19.6004C33.2839 19.4767 33.2133 19.3939 33.1647 19.3521C32.7827 19.0219 32.3776 18.734 31.9494 18.4883C31.94 18.2195 31.9404 18.0054 31.9506 17.8461C32.0141 16.8809 33.2823 16.6966 33.5894 17.5431C33.6372 17.6766 33.6623 17.9084 33.6647 18.2386C33.6671 18.7389 33.6671 19.2462 33.6647 19.7606Z" fill="#FFD800"/>
<path d="M33.6647 19.7606C33.6686 20.0686 33.6682 20.3886 33.6635 20.7206C33.6435 21.9542 31.9929 21.9782 31.9671 20.7513C31.9514 20.025 31.9455 19.2707 31.9494 18.4883C32.3777 18.734 32.7828 19.0219 33.1647 19.3521C33.2133 19.3939 33.2839 19.4767 33.3765 19.6004C33.4745 19.7304 33.5706 19.7838 33.6647 19.7606Z" fill="#FFB500"/>
<path d="M10.4129 19.3988C10.4066 22.8638 10.4062 25.2625 10.4117 26.5949C10.4133 27.0613 10.2474 27.3946 9.91407 27.5949C9.28701 27.9727 8.51054 27.4907 8.51172 26.663C8.51172 24.7449 8.51172 22.8736 8.51172 21.049L10.4129 19.3988Z" fill="#FFB500"/>
<path d="M27.4682 20.842C27.4674 22.7485 27.462 24.6773 27.4518 26.6283C27.4486 27.2362 27.1914 27.5971 26.68 27.711C26.12 27.8365 25.5588 27.3719 25.5576 26.695C25.5537 24.2999 25.5518 21.8549 25.5518 19.3601C26.22 19.798 26.8588 20.292 27.4682 20.842Z" fill="#FFB500"/>
<path d="M7.16945 19.6151C7.1773 21.6079 7.17494 23.1949 7.16239 24.376C7.15181 25.2491 6.3271 25.6203 5.71181 25.1477C5.23887 24.7845 5.30592 24.3373 5.30357 23.7779C5.29886 22.838 5.30318 21.9448 5.31651 21.0984C5.72985 20.8572 6.102 20.539 6.43298 20.1438C6.57024 19.9791 6.81573 19.8029 7.16945 19.6151Z" fill="#FFB500"/>
<path d="M30.6341 23.1557C30.6411 23.5153 30.64 23.9332 30.6306 24.4094C30.6117 25.2772 29.7011 25.6069 29.1341 25.1343C28.887 24.9278 28.7655 24.6466 28.7694 24.2906C28.7772 23.4806 28.7839 22.6529 28.7894 21.8073L30.6341 23.1557Z" fill="#FFB500"/>
</g>
<defs>
<clipPath id="clip0_263_65">
<rect width="34" height="25.5" fill="white" transform="translate(1 5)"/>
</clipPath>
</defs>
</svg>
