<svg width="40" height="25" viewBox="0 0 40 25" fill="none" xmlns="http://www.w3.org/2000/svg">
<g clip-path="url(#clip0_443_194)">
<rect width="40" height="25" fill="black"/>
<path fill-rule="evenodd" clip-rule="evenodd" d="M39.7856 11.4639V13.5364C39.7856 14.1097 39.3187 14.5726 38.7427 14.5726H37.7016V17.6832C37.7016 18.2547 37.2365 18.7194 36.6606 18.7194H34.5784C34.4567 18.7194 34.3404 18.6977 34.2314 18.6598V21.1373C34.2314 21.7106 33.7645 22.1736 33.1903 22.1736H31.1064C30.9847 22.1736 30.8684 22.1537 30.7594 22.1157V23.9007C30.7594 24.474 30.2942 24.9387 29.7183 24.9387H27.6362C27.0602 24.9387 26.5951 24.474 26.5951 23.9007V14.5729H13.4049V23.9007C13.4049 24.474 12.9397 24.9387 12.3638 24.9387H10.2816C9.70569 24.9387 9.24058 24.474 9.24058 23.9007V22.1157C9.13156 22.1537 9.01529 22.1736 8.89356 22.1736H6.80961C6.23547 22.1736 5.76854 21.7106 5.76854 21.1373V18.6598C5.65952 18.6977 5.54324 18.7194 5.42152 18.7194H3.33938C2.76342 18.7194 2.29831 18.2547 2.29831 17.6832V14.5726H1.25724C0.681286 14.5726 0.214355 14.1097 0.214355 13.5364V11.4639C0.214355 10.8906 0.681286 10.4276 1.25724 10.4276H2.29831V7.31707C2.29831 6.74559 2.76342 6.28082 3.33938 6.28082H5.42152C5.54325 6.28082 5.65953 6.30253 5.76854 6.34051V3.86291C5.76854 3.28963 6.23547 2.82666 6.80961 2.82666H8.89356C9.01529 2.82666 9.13157 2.84656 9.24058 2.88453V1.09958C9.24058 0.526292 9.70569 0.0615234 10.2816 0.0615234H12.3638C12.9397 0.0615234 13.4049 0.526292 13.4049 1.09958V10.4274H26.5951V1.09958C26.5951 0.526292 27.0602 0.0615234 27.6362 0.0615234H29.7183C30.2942 0.0615234 30.7594 0.526292 30.7594 1.09958V2.88453C30.8684 2.84656 30.9847 2.82666 31.1064 2.82666H33.1903C33.7645 2.82666 34.2314 3.28963 34.2314 3.86291V6.34051C34.3404 6.30253 34.4567 6.28082 34.5784 6.28082H36.6606C37.2365 6.28082 37.7016 6.74559 37.7016 7.31707V10.4276H38.7427C39.3187 10.4276 39.7856 10.8906 39.7856 11.4639ZM37.7016 13.8818H38.7427C38.9353 13.8818 39.0897 13.7281 39.0897 13.5364V11.4639C39.0897 11.2722 38.9353 11.1185 38.7427 11.1185H37.7016V13.8818ZM34.2315 7.31698V17.6832C34.2315 17.8731 34.3859 18.0286 34.5785 18.0286H36.6606C36.8532 18.0286 37.0076 17.8731 37.0076 17.6832V7.31698C37.0076 7.12709 36.8532 6.97157 36.6606 6.97157H34.5785C34.3859 6.97157 34.2315 7.1271 34.2315 7.31698ZM33.5374 7.31698V3.86286C33.5374 3.67117 33.3812 3.51745 33.1904 3.51745H31.1064C30.9157 3.51745 30.7594 3.67117 30.7594 3.86286V21.1369C30.7594 21.3286 30.9157 21.4823 31.1064 21.4823H33.1904C33.3812 21.4823 33.5374 21.3286 33.5374 21.1369V7.31698ZM30.0654 1.09939C30.0654 0.907695 29.911 0.752167 29.7184 0.752167H27.6362C27.4437 0.752167 27.2892 0.907695 27.2892 1.09939V23.9003C27.2892 24.092 27.4437 24.2475 27.6362 24.2475H29.7184C29.911 24.2475 30.0654 24.092 30.0654 23.9003V1.09939ZM26.5952 11.1184H13.405V13.8817H26.5952V11.1184ZM12.7106 1.09939C12.7106 0.907695 12.5561 0.752167 12.3636 0.752167H10.2814C10.0888 0.752167 9.93439 0.907695 9.93439 1.09939V23.9003C9.93439 24.092 10.0888 24.2475 10.2814 24.2475H12.3636C12.5561 24.2475 12.7106 24.092 12.7106 23.9003V1.09939ZM9.24038 3.86272C9.24038 3.67103 9.08413 3.51731 8.89336 3.51731H6.80941C6.61864 3.51731 6.46239 3.67103 6.46239 3.86272V21.1368C6.46239 21.3285 6.61864 21.4822 6.80941 21.4822H8.89336C9.08414 21.4822 9.24038 21.3285 9.24038 21.1368V3.86272ZM5.76838 7.31684C5.76838 7.12695 5.61395 6.97143 5.42136 6.97143H3.33922C3.14664 6.97143 2.99221 7.12696 2.99221 7.31684V17.683C2.99221 17.8729 3.14664 18.0285 3.33922 18.0285H5.42136C5.61395 18.0285 5.76838 17.8729 5.76838 17.683V7.31684ZM2.2982 11.1182H1.25713C1.06454 11.1182 0.910109 11.2719 0.910109 11.4636V13.5361C0.910109 13.7278 1.06454 13.8815 1.25713 13.8815H2.2982V11.1182Z" fill="white"/>
</g>
<defs>
<clipPath id="clip0_443_194">
<rect width="40" height="25" fill="white"/>
</clipPath>
</defs>
</svg>
