<svg width="32" height="30" viewBox="0 0 32 30" fill="none" xmlns="http://www.w3.org/2000/svg">
<g clip-path="url(#clip0_443_202)">
<rect width="32" height="30" fill="black"/>
<path d="M30.6426 0.0743319H16.3998C15.5534 0.0743319 14.8649 0.773618 14.8649 1.63326V6.13683L11.5742 9.4779C11.565 9.48719 11.5562 9.49683 11.5481 9.50719C11.5467 9.50862 11.5457 9.5104 11.5446 9.51219C11.5379 9.52076 11.5316 9.52933 11.5256 9.53826C11.5246 9.54005 11.5235 9.54183 11.5225 9.54362C11.5165 9.5529 11.5109 9.56219 11.5059 9.57147C11.5052 9.57255 11.5049 9.57397 11.5042 9.57505C11.4989 9.5854 11.494 9.59576 11.4894 9.60647C11.4891 9.60755 11.4887 9.60826 11.4883 9.60933C11.4841 9.6204 11.4799 9.63147 11.4764 9.6429C11.4764 9.64397 11.4757 9.64505 11.4757 9.64612C11.4725 9.65719 11.4694 9.66862 11.4672 9.6804C11.4665 9.68326 11.4665 9.68612 11.4658 9.68862C11.4641 9.69862 11.4623 9.70862 11.4613 9.71862C11.4599 9.73183 11.4592 9.74505 11.4592 9.75826V11.2772C9.89362 11.399 8.4378 12.0765 7.31604 13.2158C6.07261 14.4786 5.3876 16.1583 5.3876 17.945C5.3876 19.0311 5.64114 20.0772 6.11868 21.0143L1.25433 25.1811C0.605534 25.7368 0.213094 26.5379 0.17793 27.3793C0.147688 28.1029 0.39138 28.7829 0.846413 29.245C1.27613 29.6815 1.89714 29.9265 2.56527 29.9265C2.6043 29.9265 2.64404 29.9258 2.68342 29.924C3.51156 29.8883 4.30065 29.49 4.84782 28.8311L8.9505 23.8908C9.72483 24.2979 10.5744 24.5443 11.4592 24.6133V25.8215C11.4592 26.6811 12.1477 27.3804 12.9941 27.3804H27.2369C28.0833 27.3804 28.7719 26.6811 28.7719 25.8215V23.7793H30.6423C31.4876 23.7793 32.1751 23.08 32.1751 22.2204V1.6329C32.1751 0.77326 31.4873 0.0739746 30.6423 0.0739746L30.6426 0.0743319ZM17.0592 5.02897V9.09148C17.0592 9.24076 16.9396 9.36219 16.7926 9.36219H12.7912L17.0592 5.02897ZM7.86813 13.7758C8.96422 12.6625 10.4221 12.0493 11.9733 12.0493C13.5244 12.0493 14.982 12.6625 16.0781 13.7758C17.1742 14.889 17.7779 16.3697 17.7779 17.9447C17.7779 19.5197 17.1742 21.0004 16.0781 22.1136C14.982 23.2272 13.524 23.84 11.9733 23.84C10.4225 23.84 8.96457 23.2268 7.86813 22.1136C6.77204 21.0004 6.16826 19.5197 6.16826 17.9447C6.16826 16.3697 6.77204 14.889 7.86813 13.7758ZM4.25213 28.3197C3.84527 28.8097 3.26153 29.1058 2.65107 29.1318C2.15595 29.1529 1.69951 28.99 1.3985 28.6843C1.09749 28.3786 0.936787 27.915 0.957886 27.4122C0.983908 26.7918 1.27542 26.1993 1.75753 25.7861L6.52413 21.7033C6.75551 22.0475 7.01995 22.3725 7.31639 22.674C7.61283 22.975 7.93318 23.2436 8.27217 23.4786L4.25213 28.3197ZM27.9923 25.8204C27.9923 26.2433 27.6536 26.5872 27.2373 26.5872H12.9945C12.5781 26.5872 12.2395 26.2433 12.2395 25.8204V24.6265C13.8985 24.56 15.449 23.8729 16.6294 22.6736C19.1968 20.0661 19.1968 15.8229 16.6294 13.2154C15.449 12.0165 13.8985 11.3293 12.2395 11.2625V10.154H16.7926C17.3697 10.154 17.8388 9.67719 17.8388 9.09148V4.46898H27.2373C27.6536 4.46898 27.9923 4.81219 27.9923 5.23397V25.8204ZM31.3959 22.2197C31.3959 22.6425 31.0579 22.9865 30.6426 22.9865H28.7722V5.23397C28.7722 4.3754 28.0837 3.67683 27.2373 3.67683H17.4491C17.4361 3.67683 17.4231 3.67755 17.4101 3.67898C17.4006 3.68005 17.3915 3.68147 17.382 3.68326C17.3788 3.68397 17.3753 3.68397 17.3721 3.68469C17.3609 3.68683 17.3496 3.69005 17.3387 3.69326C17.3377 3.69326 17.3363 3.69397 17.3352 3.69433C17.324 3.6979 17.3134 3.70183 17.3029 3.70612C17.3018 3.70648 17.3007 3.70683 17.2997 3.70719C17.2895 3.71147 17.28 3.71612 17.2701 3.72147C17.2684 3.72219 17.2666 3.7229 17.2652 3.72397C17.2564 3.72897 17.2476 3.73433 17.2392 3.73969C17.2371 3.74112 17.2346 3.74255 17.2325 3.74397C17.2244 3.74933 17.2171 3.7554 17.2093 3.76147C17.2069 3.76326 17.2044 3.76505 17.2019 3.76719C17.1924 3.77505 17.1833 3.78362 17.1745 3.79255C17.1745 3.79255 17.1742 3.7929 17.1738 3.79326L15.6455 5.34505V1.6329C15.6455 1.21005 15.9842 0.866118 16.4005 0.866118H30.6433C31.0586 0.866118 31.3966 1.21005 31.3966 1.6329V22.2193L31.3959 22.2197ZM19.7268 9.54076C19.7268 9.32219 19.9012 9.14469 20.1167 9.14469H24.4199C24.6354 9.14469 24.8098 9.32183 24.8098 9.54076C24.8098 9.75969 24.6354 9.93683 24.4199 9.93683H20.1167C19.9012 9.93683 19.7268 9.75969 19.7268 9.54076ZM25.7632 12.535C25.7632 12.7536 25.5887 12.9311 25.3732 12.9311H18.1679C17.9523 12.9311 17.7779 12.754 17.7779 12.535C17.7779 12.3161 17.9523 12.139 18.1679 12.139H25.3732C25.5887 12.139 25.7632 12.3161 25.7632 12.535ZM25.7632 15.5272C25.7632 15.7458 25.5887 15.9233 25.3732 15.9233H19.6853C19.4697 15.9233 19.2953 15.7461 19.2953 15.5272C19.2953 15.3083 19.4697 15.1311 19.6853 15.1311H25.3732C25.5887 15.1311 25.7632 15.3083 25.7632 15.5272ZM25.7632 18.5215C25.7632 18.74 25.5887 18.9175 25.3732 18.9175H19.5341C19.3185 18.9175 19.1441 18.7404 19.1441 18.5215C19.1441 18.3025 19.3185 18.1254 19.5341 18.1254H25.3732C25.5887 18.1254 25.7632 18.3025 25.7632 18.5215ZM25.7632 21.5136C25.7632 21.7322 25.5887 21.9097 25.3732 21.9097H18.7488C18.5333 21.9097 18.3589 21.7325 18.3589 21.5136C18.3589 21.2947 18.5333 21.1175 18.7488 21.1175H25.3732C25.5887 21.1175 25.7632 21.2947 25.7632 21.5136ZM11.9733 22.2729C12.6671 22.2729 13.2315 21.7004 13.2315 20.9968V18.1786C13.2315 17.475 12.6671 16.9025 11.9733 16.9025C11.2795 16.9025 10.7168 17.475 10.7168 18.1786V20.9968C10.7168 21.7004 11.2805 22.2729 11.9733 22.2729ZM11.4968 18.1786C11.4968 17.9118 11.7106 17.6947 11.9733 17.6947C12.236 17.6947 12.4515 17.9118 12.4515 18.1786V20.9968C12.4515 21.2636 12.237 21.4808 11.9733 21.4808C11.7095 21.4808 11.4968 21.2636 11.4968 20.9968V18.1786ZM11.9733 16.1704C12.6671 16.1704 13.2315 15.5972 13.2315 14.8925C13.2315 14.1879 12.6671 13.6165 11.9733 13.6165C11.2795 13.6165 10.7168 14.189 10.7168 14.8925C10.7168 15.5961 11.2805 16.1704 11.9733 16.1704ZM11.9733 14.4083C12.237 14.4083 12.4515 14.6254 12.4515 14.8922C12.4515 15.159 12.237 15.3783 11.9733 15.3783C11.7095 15.3783 11.4968 15.1604 11.4968 14.8922C11.4968 14.624 11.7106 14.4083 11.9733 14.4083Z" fill="white"/>
</g>
<defs>
<clipPath id="clip0_443_202">
<rect width="32" height="30" fill="white"/>
</clipPath>
</defs>
</svg>
