<svg width="45" height="45" viewBox="0 0 45 45" fill="none" xmlns="http://www.w3.org/2000/svg">
<g clip-path="url(#clip0_456_174)">
<path fill-rule="evenodd" clip-rule="evenodd" d="M0.0414734 13.8303V31.1699C0.0414734 38.7729 6.2271 44.9586 13.8303 44.9586H31.1699C38.7729 44.9586 44.9585 38.7729 44.9585 31.1699V13.8303C44.9585 6.22713 38.7729 0.0415039 31.1699 0.0415039H13.8303C6.2271 0.0415039 0.0414734 6.22713 0.0414734 13.8303ZM4.51121 14.4447C4.51121 8.9674 8.96737 4.51124 14.4447 4.51124H30.5555C36.0328 4.51124 40.4888 8.9674 40.4888 14.4447V30.5555C40.4888 36.0328 36.0328 40.4888 30.5555 40.4888H14.4447C8.96737 40.4888 4.51121 36.0328 4.51121 30.5555V14.4447ZM16.3406 22.5C16.3406 25.8963 19.1037 28.6594 22.5 28.6594C25.8963 28.6594 28.6594 25.8963 28.6594 22.5C28.6594 19.1038 25.8963 16.3407 22.5 16.3407C19.1037 16.3407 16.3406 19.1038 16.3406 22.5ZM12.2691 22.5C12.2691 16.8586 16.8586 12.2692 22.5 12.2692C28.1414 12.2692 32.7309 16.8586 32.7309 22.5C32.7309 28.1415 28.1414 32.7309 22.5 32.7309C16.8586 32.7309 12.2691 28.1415 12.2691 22.5ZM34.0215 8.18846C35.4689 8.18846 36.6421 9.36176 36.6421 10.8091C36.6421 12.2565 35.4689 13.4298 34.0215 13.4298C32.5741 13.4298 31.4008 12.2565 31.4008 10.8091C31.4008 9.36176 32.5741 8.18846 34.0215 8.18846Z" fill="white"/>
</g>
<defs>
<clipPath id="clip0_456_174">
<rect width="45" height="45" fill="white"/>
</clipPath>
</defs>
</svg>
