<svg width="640" height="214" viewBox="0 0 640 214" fill="none" xmlns="http://www.w3.org/2000/svg">
<path fill-rule="evenodd" clip-rule="evenodd" d="M9.25293 62.989C24.0055 31.1914 54.0869 7.48317 87.753 1.11809C92.9407 0.137324 100.071 -0.175374 111.163 0.0906644C130.618 0.558218 141.857 3.11436 157.138 10.5466C198.01 30.426 222.128 72.4741 218.223 117.047C215.7 145.84 199.665 174.125 175.461 192.479C166.314 199.415 148.988 207.623 137.082 210.66C118.766 215.334 95.8854 215.056 78.2669 209.949C37.7812 198.211 6.7857 163.298 0.944073 122.851C-1.7993 103.856 1.57608 79.534 9.25293 62.989ZM235.273 106.541C235.273 74.1457 235.572 47.3433 235.938 46.98C236.303 46.6157 243.46 46.3179 251.842 46.3179H267.081L271.564 60.4636C274.029 68.2433 280.337 88.4573 285.581 105.382C290.825 122.308 295.37 136.826 295.681 137.645C295.991 138.464 299.801 127.519 304.145 113.324C308.491 99.1286 315.028 78.2753 318.673 66.9835L325.3 46.4529L340.846 46.6336L356.392 46.8142V106.375V165.936L345.795 166.217C336.476 166.463 335.117 166.289 334.53 164.765C334.163 163.811 333.996 145.95 334.162 125.074C334.326 104.197 334.195 87.4288 333.869 87.812C333.544 88.1942 327.584 105.817 320.625 126.973L307.972 165.44H296.261H284.55L271.709 126.725C264.648 105.432 258.607 88.0105 258.286 88.0105C257.965 88.0096 257.829 105.431 257.984 126.725L258.265 165.44H246.769H235.273V106.541ZM150.041 80.5654L160.259 65.427C165.878 57.1014 170.128 50.2886 169.701 50.2886C169.275 50.2886 165.798 51.7836 161.976 53.6101C152.256 58.2559 140.624 67.6993 137.578 73.4161C134.484 79.2243 135.288 80.1435 143.678 80.3838L150.041 80.5654ZM123.624 72.5237C123.624 70.8133 122.818 68.7307 121.801 67.8144C120.173 66.3472 115.983 66.1715 82.6152 66.1715C41.978 66.1715 41.6321 66.2172 41.6321 71.6313C41.6321 76.9451 42.5392 77.09 75.7159 77.1L106.179 77.1089L74.0302 108.626C40.1557 141.833 39.2825 142.937 43.7046 146.921C45.3614 148.414 51.3954 148.564 109.842 148.564C170.882 148.564 174.239 148.472 175.805 146.749C178.023 144.308 177.886 141.052 175.461 138.637C173.607 136.791 172.122 136.65 154.278 136.63L153.702 136.63C139.811 136.614 135.278 136.609 132.347 134.439C130.928 133.388 129.885 131.829 128.336 129.515L128.203 129.316C128.059 129.102 127.919 128.894 127.784 128.693C126.421 126.669 125.521 125.334 125.848 124.453C126.48 122.748 131.712 122.75 147.078 122.754L149.52 122.754H173.422L175.071 120.247C178.704 114.726 173.846 101.135 165.607 93.7651C159.539 88.3391 153.056 86.0143 144.006 86.0202C135.738 86.0262 129.195 88.761 123.18 94.7241C116.644 101.203 114.257 107.074 114.202 116.798C114.161 123.949 114.564 126.108 116.841 130.944L119.526 136.652H90.928H62.329L92.9766 106.121C119.945 79.2561 123.624 75.2218 123.624 72.5237ZM372.142 101.918C376.8 92.4111 387.943 83.7241 399.569 80.5357C406.158 78.729 417.375 78.7935 423.748 80.6746C431.561 82.9816 436.275 85.6053 441.725 90.6819C451.23 99.5356 455.58 109.671 455.58 122.963V129.703H422.185C420.125 129.703 418.185 129.702 416.359 129.701C395.708 129.687 389.627 129.683 388.893 131.662C388.586 132.488 389.211 133.66 390.095 135.32C390.283 135.672 390.482 136.046 390.687 136.443C397.287 149.261 415.619 153.171 427.824 144.366L432.114 141.272L441.009 142.39C445.901 143.005 450.35 143.952 450.897 144.496C452.152 145.746 449.824 149.384 444.165 155.021C435.816 163.334 425.256 167.435 412.256 167.413C377.386 167.355 356.661 133.516 372.142 101.918ZM490.911 85.505C492.799 84.0716 496.499 82.0594 499.135 81.034C505.747 78.4609 516.688 78.4728 523.632 81.0598C530.321 83.5524 534.484 86.593 538.764 92.1153C544.717 99.7927 545.298 103.715 545.298 136.193V165.154L537.493 165.802C533.201 166.158 528.266 166.167 526.528 165.821L523.367 165.192V137.481C523.367 111.684 523.228 109.5 521.363 105.86C514.992 93.4236 492.195 95.4705 488.473 108.813C487.932 110.748 487.489 124.281 487.486 138.886L487.48 165.44H476.514H465.549V123.367C465.549 84.1272 465.666 81.2633 467.293 80.8503C468.252 80.6061 473.188 80.6081 478.259 80.8553L487.48 81.305V84.7079V88.1118L490.911 85.505ZM560.12 81.2166L562.429 80.8484C564.706 80.484 566.661 80.487 576.948 80.8682L582.182 81.0618V108.15C582.182 134.271 582.262 135.396 584.425 139.66C590.783 152.192 608.375 152.735 615.523 140.62C617.436 137.377 617.591 135.3 617.877 109.105L618.183 81.0618H629.091H640V123.251V165.44H629.533H619.066V162.308C619.066 159.364 618.959 159.272 617.284 160.781C612.826 164.799 605.851 166.854 596.636 166.864C591.702 166.87 585.799 166.322 583.521 165.647C574.158 162.875 565.176 154.124 562.091 144.769C561.299 142.365 560.756 130.894 560.504 111.168L560.12 81.2166ZM127.866 106.699C130.468 102.458 134.502 99.0859 138.355 97.9294C145.391 95.819 152.982 97.5452 158.501 102.511C160.61 104.408 162.798 107.282 163.363 108.898L164.392 111.835H145.005C134.342 111.835 125.62 111.5 125.623 111.09C125.626 110.68 126.635 108.705 127.866 106.699ZM433.649 113.771C433.649 108.573 426.707 100.898 419.814 98.4764C412.404 95.8726 404.215 96.9675 397.285 101.488C394.644 103.212 388.817 112.19 388.799 114.565C388.792 115.521 393.936 115.806 411.22 115.806C433.166 115.806 433.649 115.762 433.649 113.771Z" fill="white"/>
</svg>
