<svg width="67" height="72" viewBox="0 0 67 72" fill="none" xmlns="http://www.w3.org/2000/svg">
<g clip-path="url(#clip0_436_64)">
<path d="M31.9575 9.61752L31.99 11.5475C31.9916 11.6442 32.0366 11.7125 32.125 11.7525C33.1016 12.2009 33.8658 12.8459 34.4175 13.6875C34.4741 13.7725 34.5416 13.7834 34.62 13.72C35.2116 13.2484 35.4525 12.61 35.3425 11.805" stroke="#805B00" stroke-width="2"/>
<path d="M35.3425 11.805C35.3441 8.85001 35.3425 5.89834 35.3375 2.95001C35.335 2.15001 35.3525 1.44001 34.645 1.03251C33.56 0.402508 31.9325 0.915009 31.94 2.31251C31.9533 4.70918 31.9591 7.14418 31.9575 9.61751" stroke="#806C00" stroke-width="2"/>
<path d="M35.3425 11.805C35.3491 11.7717 35.3425 11.7475 35.3225 11.7325C35.3075 11.7225 35.2916 11.7217 35.275 11.73L35.195 11.7675C35.16 11.7842 35.1266 11.7817 35.095 11.76L31.9575 9.61752" stroke="#FFC700" stroke-width="2"/>
<path d="M13.2125 27.8025C13.2125 31.2192 13.2125 34.7234 13.2125 38.315C13.21 39.865 14.86 40.7675 16.1925 40.06C16.9008 39.685 17.2533 39.0609 17.25 38.1875C17.2383 35.6925 17.2391 31.2009 17.2525 24.7125" stroke="#805B00" stroke-width="2"/>
<path d="M17.2525 24.7125C17.2425 20.3092 17.2433 15.8842 17.255 11.4375C17.2575 10.375 16.4075 9.50002 15.3775 9.42502C14.2175 9.34252 13.2125 10.2425 13.2125 11.405C13.2075 16.7834 13.2075 22.2492 13.2125 27.8025" stroke="#806C00" stroke-width="2"/>
<path d="M17.2525 24.7125L13.2125 27.8025" stroke="#FFC700" stroke-width="2"/>
<path d="M49.4225 24.64C49.4225 29.3117 49.4266 33.89 49.435 38.375C49.4375 39.6425 50.63 40.5125 51.82 40.2775C52.9067 40.0642 53.4533 39.3883 53.46 38.25C53.4817 34.5967 53.4933 30.985 53.495 27.415" stroke="#805B00" stroke-width="2"/>
<path d="M53.495 27.415C53.4967 22.035 53.4908 16.6975 53.4775 11.4025C53.4725 10.0225 52.1175 9.11999 50.8575 9.53249C49.3175 10.0375 49.42 11.165 49.42 12.5275C49.42 16.6458 49.4208 20.6833 49.4225 24.64" stroke="#806C00" stroke-width="2"/>
<path d="M53.495 27.415C52.2 26.385 50.8425 25.46 49.4225 24.64" stroke="#FFC700" stroke-width="2"/>
<path d="M6.4225 27.895C6.39416 29.48 6.385 31.1525 6.395 32.9125C6.4 33.96 6.2575 34.7975 7.2625 35.4775C8.57 36.3625 10.3225 35.6675 10.345 34.0325C10.3717 31.8209 10.3767 28.8492 10.36 25.1175" stroke="#805B00" stroke-width="2"/>
<path d="M10.3599 25.1175C10.3749 21.9525 10.3858 18.7908 10.3924 15.6325C10.3924 14.8542 10.0716 14.2775 9.42995 13.9025C8.82328 13.5492 8.19912 13.535 7.55745 13.86C6.75412 14.2683 6.35578 14.92 6.36245 15.815C6.39411 19.73 6.41412 23.7567 6.42245 27.895" stroke="#806C00" stroke-width="2"/>
<path d="M10.36 25.1175C9.60832 25.4692 9.08665 25.7992 8.79498 26.1075C8.09165 26.8475 7.30082 27.4434 6.42249 27.895" stroke="#FFC700" stroke-width="2"/>
<path d="M56.3025 29.2225C56.2908 30.8058 56.2766 32.3558 56.26 33.8725C56.2516 34.5392 56.51 35.0658 57.035 35.4525C58.24 36.3375 60.175 35.72 60.215 34.095C60.235 33.2033 60.2375 32.4208 60.2225 31.7475" stroke="#805B00" stroke-width="2"/>
<path d="M60.2225 31.7475C60.2325 26.2642 60.2383 20.8917 60.24 15.63C60.24 12.98 56.32 13.035 56.31 15.5C56.295 20.1067 56.2925 24.6809 56.3025 29.2225" stroke="#806C00" stroke-width="2"/>
<path d="M60.2225 31.7475L56.3025 29.2225" stroke="#FFC700" stroke-width="2"/>
<path d="M20.1475 25.265C20.0908 25.7067 20.11 26.105 20.205 26.46C20.2283 26.545 20.2841 26.5875 20.3725 26.5875L28.945 26.5825C28.9996 26.5827 29.0524 26.5624 29.0931 26.5254C29.1338 26.4884 29.1594 26.4375 29.165 26.3825C29.3933 24.1008 29.735 22.035 30.19 20.185C30.31 19.6967 30.3941 19.7034 30.4425 20.205C31.1025 26.9275 31.3875 33.9325 32.03 40.645C32.1466 41.855 32.7766 42.5025 33.92 42.5875C34.9125 42.6625 35.635 41.975 35.86 41.07C36.2375 39.5525 36.29 37.93 36.5425 36.3875C36.8091 34.7658 37.02 33.3233 37.175 32.06C37.6633 28.0933 38.1341 24.1067 38.5875 20.1C38.6125 19.8867 38.6666 19.8792 38.75 20.0775C38.8133 20.2275 38.8583 20.385 38.885 20.55C39.1083 21.9683 39.2775 23.4733 39.3925 25.065C39.4241 25.5117 39.4858 25.9758 39.5775 26.4575C39.5941 26.5442 39.6466 26.5875 39.735 26.5875L46.3325 26.58C46.393 26.5794 46.4509 26.5548 46.4935 26.5118C46.5361 26.4687 46.56 26.4106 46.56 26.35L46.5625 25.3775" stroke="#805B00" stroke-width="2"/>
<path d="M46.5625 25.3775L46.565 23.6525C46.5657 23.6034 46.5465 23.5561 46.5118 23.521C46.4771 23.4858 46.4297 23.4657 46.38 23.465L41.8725 23.45C41.8163 23.4493 41.7621 23.4282 41.7199 23.3905C41.6777 23.3529 41.6503 23.3013 41.6425 23.245C41.3375 20.925 40.965 18.5558 40.525 16.1375C40.4233 15.5792 40.1067 15.1142 39.575 14.7425C39.0767 14.3942 38.5892 14.3042 38.1125 14.4725C37.015 14.86 36.6025 15.7475 36.4825 16.9C36.2892 18.75 36.0025 21.0858 35.6225 23.9075C35.3975 25.5892 35.19 27.745 35 30.375C34.965 30.8717 34.88 31.5558 34.745 32.4275" stroke="#806C00" stroke-width="2"/>
<path d="M34.745 32.4275L34.47 34.44C34.4617 34.4917 34.4325 34.5225 34.3825 34.5325C34.3558 34.5392 34.3325 34.5325 34.3125 34.5125C34.2808 34.4825 34.2633 34.4467 34.26 34.405C34.1867 33.6084 34.0808 32.865 33.9425 32.175" stroke="#805B00" stroke-width="2"/>
<path d="M33.9425 32.175C33.5508 27.1217 33.0933 22.1209 32.57 17.1725C32.5483 16.9675 32.5333 16.76 32.525 16.55C32.4883 15.7317 32.1275 15.0925 31.4425 14.6325C30.2775 13.8475 28.4275 14.5 28.185 15.955C27.725 18.7084 27.3783 21.17 27.145 23.34C27.1366 23.4217 27.0908 23.4625 27.0075 23.4625L20.395 23.4525C20.3337 23.4525 20.275 23.4767 20.2314 23.5197C20.1879 23.5628 20.1631 23.6213 20.1625 23.6825L20.1475 25.265" stroke="#806C00" stroke-width="2"/>
<path d="M33.9425 32.175C33.7841 32.3717 33.5016 32.2925 33.095 31.9375C32.7225 31.615 32.6625 31.12 32.625 30.6625C32.5316 29.5508 32.4516 28.385 32.385 27.165C32.2833 25.3084 31.9216 21.9817 31.3 17.185C31.24 16.7225 31 16.2075 30.465 16.175C29.775 16.13 29.3866 16.4459 29.3 17.1225C29.1066 18.6409 28.8425 20.3475 28.5075 22.2425C28.3475 23.1525 28.2166 24.0767 28.115 25.015C28.1094 25.0654 28.0856 25.1119 28.0483 25.1456C28.0109 25.1792 27.9625 25.1978 27.9125 25.1975L20.1475 25.265" stroke="#FFC700" stroke-width="2"/>
<path d="M46.5625 25.3775C44.6608 25.2142 42.7883 25.1784 40.945 25.27C40.8826 25.2732 40.8213 25.2532 40.7732 25.2139C40.7251 25.1745 40.6936 25.1188 40.685 25.0575C40.525 23.9575 40.3908 22.875 40.2825 21.81C40.11 20.1225 39.6975 18.59 39.4525 16.9675C39.3575 16.3475 38.85 16.0725 38.3 16.355C37.8375 16.5925 37.7925 17.22 37.7325 17.6725C37.4875 19.5575 37.2517 21.4292 37.025 23.2875C36.775 25.3475 36.2575 28.3425 36.075 30.8325C36.01 31.6959 35.5667 32.2275 34.745 32.4275" stroke="#FFC700" stroke-width="2"/>
<path d="M3.67248 21.95C3.67248 21.4879 3.48889 21.0447 3.16211 20.7179C2.83533 20.3911 2.39212 20.2075 1.92998 20.2075H1.77998C1.31784 20.2075 0.874624 20.3911 0.547842 20.7179C0.22106 21.0447 0.0374756 21.4879 0.0374756 21.95V27.17C0.0374756 27.6322 0.22106 28.0754 0.547842 28.4022C0.874624 28.7289 1.31784 28.9125 1.77998 28.9125H1.92998C2.39212 28.9125 2.83533 28.7289 3.16211 28.4022C3.48889 28.0754 3.67248 27.6322 3.67248 27.17V21.95Z" stroke="#805B00" stroke-width="2"/>
<path d="M63.0175 23.0075C63.0091 24.4725 63.0216 25.885 63.055 27.245C63.11 29.5425 66.6175 29.4975 66.66 27.1875C66.67 26.5658 66.6708 25.9667 66.6625 25.39" stroke="#805B00" stroke-width="2"/>
<path d="M66.6625 25.39C66.6675 24.4267 66.6675 23.4767 66.6625 22.54C66.6575 21.9217 66.6041 21.4875 66.5025 21.2375C65.85 19.6525 63.1549 19.9975 63.0199 21.805C62.9983 22.1033 62.9975 22.5042 63.0175 23.0075" stroke="#806C00" stroke-width="2"/>
<path d="M66.6625 25.39C66.4625 25.4333 66.2583 25.3333 66.05 25.09C65.8533 24.8583 65.7033 24.7033 65.6 24.625C64.7883 24.0067 63.9275 23.4675 63.0175 23.0075" stroke="#FFC700" stroke-width="2"/>
<path d="M10.335 39C10.3372 38.9765 10.3344 38.9529 10.3267 38.9307C10.319 38.9084 10.3066 38.8882 10.2904 38.8713C10.2743 38.8544 10.2547 38.8413 10.233 38.8329C10.2114 38.8245 10.1881 38.8209 10.165 38.8225C8.4575 38.9225 6.8375 38.89 5.4975 37.78C4.52416 36.9733 3.92916 36.0325 3.7125 34.9575C3.515 33.9775 3.59 33.0175 3.5725 32.0425C3.57083 31.9408 3.51916 31.8925 3.4175 31.8975C2.98083 31.9175 2.5475 31.9283 2.1175 31.93C-0.512502 31.9325 -2.7025 30.27 -2.75 27.5075C-2.78334 25.6475 -2.7925 23.6433 -2.7775 21.495C-2.77417 21.2033 -2.70417 20.8225 -2.5675 20.3525C-2.4575 19.9742 -2.28167 19.6375 -2.04 19.3425C-1.76334 19.0092 -1.47834 18.7175 -1.185 18.4675C0.242497 17.255 1.67 17.27 3.42 17.355C3.44065 17.356 3.46129 17.3528 3.48066 17.3456C3.50004 17.3384 3.51775 17.3273 3.53271 17.3131C3.54768 17.2988 3.55959 17.2817 3.56772 17.2626C3.57585 17.2436 3.58002 17.2232 3.58 17.2025C3.5825 16.3675 3.515 15.5375 3.695 14.7225C3.95 13.5758 4.5225 12.6158 5.4125 11.8425C6.735 10.695 8.4875 10.73 10.1125 10.765C10.2142 10.7667 10.2758 10.7175 10.2975 10.6175C10.6108 9.19084 11.2658 8.1425 12.2625 7.4725C13.7358 6.48417 15.3242 6.26917 17.0275 6.8275C18.9175 7.445 20.1225 9.58 20.12 11.5175C20.1167 14.4692 20.1158 17.4033 20.1175 20.32C20.1175 20.3697 20.1373 20.4174 20.1724 20.4526C20.2076 20.4877 20.2553 20.5075 20.305 20.5075L24.6275 20.4875C24.6485 20.4873 24.6688 20.48 24.6848 20.4667C24.7008 20.4535 24.7115 20.4352 24.715 20.415C24.97 19.0117 25.2183 17.4408 25.46 15.7025C25.5567 15.0108 25.8425 14.26 26.3175 13.45C26.8858 12.485 27.815 11.8308 29.105 11.4875C29.1344 11.4798 29.1604 11.4623 29.1789 11.4379C29.1975 11.4135 29.2075 11.3834 29.2075 11.3525C29.2208 8.4775 29.2167 5.455 29.195 2.285C29.19 1.63834 29.2642 1.07084 29.4175 0.582504C29.65 -0.157496 30.385 -1.235 31.1575 -1.635C32.4525 -2.3025 33.9175 -2.66 35.3 -1.9975C35.7675 -1.775 36.27 -1.635 36.67 -1.2825C37.7925 -0.292497 38.1825 0.885004 38.1675 2.5025C38.1375 5.47584 38.1342 8.39334 38.1575 11.255C38.1574 11.2725 38.161 11.2899 38.1682 11.3059C38.1753 11.3219 38.1859 11.3363 38.1991 11.3481C38.2123 11.3599 38.2278 11.3688 38.2448 11.3743C38.2618 11.3798 38.2797 11.3818 38.2975 11.38C38.6525 11.3467 39.0017 11.3833 39.345 11.49C41.31 12.1 42.5425 13.33 43.0425 15.18C43.2542 15.9617 43.4025 17.1058 43.4875 18.6125C43.52 19.205 43.7025 19.7975 43.775 20.3925C43.7793 20.4285 43.7964 20.4616 43.8232 20.4856C43.8499 20.5095 43.8844 20.5227 43.92 20.5225L46.3825 20.52C46.4111 20.52 46.4393 20.5144 46.4657 20.5034C46.4921 20.4925 46.5161 20.4765 46.5363 20.4563C46.5565 20.4361 46.5725 20.4121 46.5834 20.3857C46.5944 20.3593 46.6 20.3311 46.6 20.3025C46.595 17.3758 46.5883 14.4667 46.58 11.575C46.5767 10.6233 46.8542 9.625 47.4125 8.58C47.63 8.1725 48.1925 7.595 48.5875 7.365C51.7125 5.565 55.66 6.79 56.2925 10.595C56.3003 10.6435 56.325 10.6876 56.3622 10.7192C56.3993 10.7509 56.4465 10.768 56.495 10.7675C58.205 10.7475 59.99 10.695 61.385 11.9075C62.3033 12.7042 62.8692 13.7108 63.0825 14.9275C63.2075 15.64 63.1225 16.4675 63.145 17.2075C63.1463 17.2495 63.1638 17.2893 63.1938 17.3183C63.2237 17.3473 63.2637 17.3632 63.305 17.3625C64.365 17.345 65.6075 17.195 66.5975 17.6425C67.9258 18.2408 68.8033 19.1708 69.23 20.4325C69.4667 21.1275 69.5675 22.0867 69.5325 23.31C69.4992 24.4467 69.4983 25.5292 69.53 26.5575C69.57 27.83 69.3375 28.93 68.57 30.0225C67.24 31.915 65.4325 31.9825 63.295 31.8975C63.1933 31.8942 63.1425 31.9433 63.1425 32.045C63.1425 33.585 63.3125 35.0925 62.4125 36.4525C61.3192 38.1075 59.7392 38.9075 57.6725 38.8525C57.2675 38.8408 56.8492 38.835 56.4175 38.835C56.3225 38.8367 56.2708 38.885 56.2625 38.98C56.1508 40.4383 55.4758 41.5817 54.2375 42.41C51.96 43.935 48.765 43.37 47.38 40.9675C46.8425 40.04 46.565 39.1825 46.5725 38.0775C46.5942 35.2058 46.5983 32.4142 46.585 29.7025C46.5843 29.6519 46.5635 29.6035 46.527 29.568C46.4905 29.5324 46.4413 29.5125 46.39 29.5125L40.195 29.5225C40.1796 29.5224 40.1648 29.5279 40.1533 29.5381C40.1417 29.5482 40.1343 29.5623 40.1325 29.5775C39.7725 31.77 39.4525 33.94 39.2775 36.1975C39.1408 37.9742 38.8675 39.9367 38.4575 42.085C38.2958 42.9233 37.9 43.6233 37.27 44.185C35.9733 45.3417 34.5333 45.7625 32.95 45.4475C30.85 45.03 29.3175 43.095 29.2875 40.9775C29.2325 37.18 28.7325 33.215 28.5025 29.5875C28.5018 29.5694 28.4939 29.5522 28.4804 29.5396C28.4669 29.527 28.4488 29.52 28.43 29.52H20.29C20.1917 29.52 20.1425 29.5683 20.1425 29.665C20.1108 32.215 20.1067 34.8808 20.13 37.6625C20.1383 38.5742 20.0208 39.33 19.7775 39.93C17.9375 44.5025 12.41 44.2625 10.485 39.9275C10.3533 39.6292 10.3033 39.32 10.335 39ZM31.9575 9.6175L31.99 11.5475C31.9917 11.6442 32.0367 11.7125 32.125 11.7525C33.1017 12.2008 33.8658 12.8458 34.4175 13.6875C34.4742 13.7725 34.5417 13.7833 34.62 13.72C35.2117 13.2483 35.4525 12.61 35.3425 11.805C35.3442 8.85 35.3425 5.89834 35.3375 2.95C35.335 2.15 35.3525 1.44 34.645 1.0325C33.56 0.402503 31.9325 0.915004 31.94 2.3125C31.9533 4.70917 31.9592 7.14417 31.9575 9.6175ZM13.2125 27.8025C13.2125 31.2192 13.2125 34.7233 13.2125 38.315C13.21 39.865 14.86 40.7675 16.1925 40.06C16.9008 39.685 17.2533 39.0608 17.25 38.1875C17.2383 35.6925 17.2392 31.2008 17.2525 24.7125C17.2425 20.3092 17.2433 15.8842 17.255 11.4375C17.2575 10.375 16.4075 9.5 15.3775 9.425C14.2175 9.3425 13.2125 10.2425 13.2125 11.405C13.2075 16.7833 13.2075 22.2492 13.2125 27.8025ZM49.4225 24.64C49.4225 29.3117 49.4267 33.89 49.435 38.375C49.4375 39.6425 50.63 40.5125 51.82 40.2775C52.9067 40.0642 53.4533 39.3883 53.46 38.25C53.4817 34.5967 53.4933 30.985 53.495 27.415C53.4967 22.035 53.4908 16.6975 53.4775 11.4025C53.4725 10.0225 52.1175 9.12 50.8575 9.5325C49.3175 10.0375 49.42 11.165 49.42 12.5275C49.42 16.6458 49.4208 20.6833 49.4225 24.64ZM6.4225 27.895C6.39417 29.48 6.385 31.1525 6.395 32.9125C6.4 33.96 6.2575 34.7975 7.2625 35.4775C8.57 36.3625 10.3225 35.6675 10.345 34.0325C10.3717 31.8208 10.3767 28.8492 10.36 25.1175C10.375 21.9525 10.3858 18.7908 10.3925 15.6325C10.3925 14.8542 10.0717 14.2775 9.43 13.9025C8.82333 13.5492 8.19917 13.535 7.5575 13.86C6.75417 14.2683 6.35583 14.92 6.3625 15.815C6.39416 19.73 6.41417 23.7567 6.4225 27.895ZM56.3025 29.2225C56.2908 30.8058 56.2767 32.3558 56.26 33.8725C56.2517 34.5392 56.51 35.0658 57.035 35.4525C58.24 36.3375 60.175 35.72 60.215 34.095C60.235 33.2033 60.2375 32.4208 60.2225 31.7475C60.2325 26.2642 60.2383 20.8917 60.24 15.63C60.24 12.98 56.32 13.035 56.31 15.5C56.295 20.1067 56.2925 24.6808 56.3025 29.2225ZM20.1475 25.265C20.0908 25.7067 20.11 26.105 20.205 26.46C20.2283 26.545 20.2842 26.5875 20.3725 26.5875L28.945 26.5825C28.9997 26.5827 29.0525 26.5624 29.0931 26.5254C29.1338 26.4884 29.1594 26.4375 29.165 26.3825C29.3933 24.1008 29.735 22.035 30.19 20.185C30.31 19.6967 30.3942 19.7033 30.4425 20.205C31.1025 26.9275 31.3875 33.9325 32.03 40.645C32.1467 41.855 32.7767 42.5025 33.92 42.5875C34.9125 42.6625 35.635 41.975 35.86 41.07C36.2375 39.5525 36.29 37.93 36.5425 36.3875C36.8092 34.7658 37.02 33.3233 37.175 32.06C37.6633 28.0933 38.1342 24.1067 38.5875 20.1C38.6125 19.8867 38.6667 19.8792 38.75 20.0775C38.8133 20.2275 38.8583 20.385 38.885 20.55C39.1083 21.9683 39.2775 23.4733 39.3925 25.065C39.4242 25.5117 39.4858 25.9758 39.5775 26.4575C39.5942 26.5442 39.6467 26.5875 39.735 26.5875L46.3325 26.58C46.3931 26.5793 46.4509 26.5548 46.4935 26.5118C46.5361 26.4687 46.56 26.4106 46.56 26.35L46.5625 25.3775L46.565 23.6525C46.5657 23.6034 46.5465 23.5561 46.5118 23.521C46.4771 23.4858 46.4297 23.4657 46.38 23.465L41.8725 23.45C41.8163 23.4493 41.7621 23.4282 41.7199 23.3906C41.6777 23.3529 41.6503 23.3013 41.6425 23.245C41.3375 20.925 40.965 18.5558 40.525 16.1375C40.4233 15.5792 40.1067 15.1142 39.575 14.7425C39.0767 14.3942 38.5892 14.3042 38.1125 14.4725C37.015 14.86 36.6025 15.7475 36.4825 16.9C36.2892 18.75 36.0025 21.0858 35.6225 23.9075C35.3975 25.5892 35.19 27.745 35 30.375C34.965 30.8717 34.88 31.5558 34.745 32.4275L34.47 34.44C34.4617 34.4917 34.4325 34.5225 34.3825 34.5325C34.3558 34.5392 34.3325 34.5325 34.3125 34.5125C34.2808 34.4825 34.2633 34.4467 34.26 34.405C34.1867 33.6083 34.0808 32.865 33.9425 32.175C33.5508 27.1217 33.0933 22.1208 32.57 17.1725C32.5483 16.9675 32.5333 16.76 32.525 16.55C32.4883 15.7317 32.1275 15.0925 31.4425 14.6325C30.2775 13.8475 28.4275 14.5 28.185 15.955C27.725 18.7083 27.3783 21.17 27.145 23.34C27.1367 23.4217 27.0908 23.4625 27.0075 23.4625L20.395 23.4525C20.3338 23.4525 20.275 23.4767 20.2315 23.5197C20.1879 23.5628 20.1632 23.6213 20.1625 23.6825L20.1475 25.265ZM3.6725 21.95C3.6725 21.4879 3.48891 21.0446 3.16213 20.7179C2.83535 20.3911 2.39214 20.2075 1.93 20.2075H1.78C1.31786 20.2075 0.874647 20.3911 0.547865 20.7179C0.221083 21.0446 0.0374985 21.4879 0.0374985 21.95V27.17C0.0374985 27.6321 0.221083 28.0754 0.547865 28.4021C0.874647 28.7289 1.31786 28.9125 1.78 28.9125H1.93C2.39214 28.9125 2.83535 28.7289 3.16213 28.4021C3.48891 28.0754 3.6725 27.6321 3.6725 27.17V21.95ZM63.0175 23.0075C63.0092 24.4725 63.0217 25.885 63.055 27.245C63.11 29.5425 66.6175 29.4975 66.66 27.1875C66.67 26.5658 66.6708 25.9667 66.6625 25.39C66.6675 24.4267 66.6675 23.4767 66.6625 22.54C66.6575 21.9217 66.6042 21.4875 66.5025 21.2375C65.85 19.6525 63.155 19.9975 63.02 21.805C62.9983 22.1033 62.9975 22.5042 63.0175 23.0075Z" fill="black"/>
<path d="M35.3425 11.805C35.3491 11.7717 35.3425 11.7475 35.3225 11.7325C35.3075 11.7225 35.2916 11.7217 35.275 11.73L35.195 11.7675C35.16 11.7842 35.1266 11.7817 35.095 11.76L31.9575 9.61751C31.9591 7.14418 31.9533 4.70918 31.94 2.31251C31.9325 0.915009 33.56 0.402508 34.645 1.03251C35.3525 1.44001 35.335 2.15001 35.3375 2.95001C35.3425 5.89834 35.3441 8.85001 35.3425 11.805Z" fill="#FFD800"/>
<path d="M17.2525 24.7125L13.2125 27.8025C13.2075 22.2492 13.2075 16.7833 13.2125 11.405C13.2125 10.2425 14.2175 9.34249 15.3775 9.42499C16.4075 9.49999 17.2575 10.375 17.255 11.4375C17.2433 15.8842 17.2425 20.3092 17.2525 24.7125Z" fill="#FFD800"/>
<path d="M53.495 27.415C52.2 26.385 50.8425 25.46 49.4225 24.64C49.4208 20.6833 49.42 16.6458 49.42 12.5275C49.42 11.165 49.3175 10.0375 50.8575 9.53249C52.1175 9.11999 53.4725 10.0225 53.4775 11.4025C53.4908 16.6975 53.4967 22.035 53.495 27.415Z" fill="#FFD800"/>
<path d="M35.3425 11.805C35.4525 12.61 35.2117 13.2483 34.62 13.72C34.5417 13.7833 34.4742 13.7725 34.4175 13.6875C33.8659 12.8458 33.1017 12.2008 32.125 11.7525C32.0367 11.7125 31.9917 11.6442 31.99 11.5475L31.9575 9.61749L35.095 11.76C35.1267 11.7817 35.16 11.7842 35.195 11.7675L35.275 11.73C35.2917 11.7217 35.3075 11.7225 35.3225 11.7325C35.3425 11.7475 35.3492 11.7717 35.3425 11.805Z" fill="#FFB500"/>
<path d="M10.36 25.1175C9.60834 25.4692 9.08668 25.7992 8.79501 26.1075C8.09168 26.8475 7.30084 27.4433 6.42251 27.895C6.41418 23.7567 6.39418 19.73 6.36251 15.815C6.35584 14.92 6.75418 14.2683 7.55751 13.86C8.19918 13.535 8.82334 13.5492 9.43001 13.9025C10.0717 14.2775 10.3925 14.8542 10.3925 15.6325C10.3858 18.7908 10.375 21.9525 10.36 25.1175Z" fill="#FFD800"/>
<path d="M60.2225 31.7475L56.3025 29.2225C56.2925 24.6808 56.295 20.1067 56.31 15.5C56.32 13.035 60.24 12.98 60.24 15.63C60.2383 20.8917 60.2325 26.2642 60.2225 31.7475Z" fill="#FFD800"/>
<path d="M33.9425 32.175C33.7842 32.3717 33.5017 32.2925 33.095 31.9375C32.7225 31.615 32.6625 31.12 32.625 30.6625C32.5317 29.5508 32.4517 28.385 32.385 27.165C32.2834 25.3083 31.9217 21.9817 31.3 17.185C31.24 16.7225 31 16.2075 30.465 16.175C29.775 16.13 29.3867 16.4458 29.3 17.1225C29.1067 18.6408 28.8425 20.3475 28.5075 22.2425C28.3475 23.1525 28.2167 24.0767 28.115 25.015C28.1095 25.0653 28.0857 25.1118 28.0483 25.1455C28.0109 25.1792 27.9626 25.1977 27.9125 25.1975L20.1475 25.265L20.1625 23.6825C20.1632 23.6213 20.188 23.5628 20.2315 23.5197C20.275 23.4766 20.3338 23.4525 20.395 23.4525L27.0075 23.4625C27.0909 23.4625 27.1367 23.4217 27.145 23.34C27.3784 21.17 27.725 18.7083 28.185 15.955C28.4275 14.5 30.2775 13.8475 31.4425 14.6325C32.1275 15.0925 32.4884 15.7317 32.525 16.55C32.5334 16.76 32.5484 16.9675 32.57 17.1725C33.0934 22.1208 33.5509 27.1217 33.9425 32.175Z" fill="#FFD800"/>
<path d="M46.5625 25.3775C44.6608 25.2142 42.7883 25.1783 40.945 25.27C40.8826 25.2732 40.8213 25.2532 40.7732 25.2138C40.7251 25.1745 40.6936 25.1187 40.685 25.0575C40.525 23.9575 40.3908 22.875 40.2825 21.81C40.11 20.1225 39.6975 18.59 39.4525 16.9675C39.3575 16.3475 38.85 16.0725 38.3 16.355C37.8375 16.5925 37.7925 17.22 37.7325 17.6725C37.4875 19.5575 37.2517 21.4292 37.025 23.2875C36.775 25.3475 36.2575 28.3425 36.075 30.8325C36.01 31.6958 35.5667 32.2275 34.745 32.4275C34.88 31.5558 34.965 30.8717 35 30.375C35.19 27.745 35.3975 25.5892 35.6225 23.9075C36.0025 21.0858 36.2892 18.75 36.4825 16.9C36.6025 15.7475 37.015 14.86 38.1125 14.4725C38.5892 14.3042 39.0767 14.3942 39.575 14.7425C40.1067 15.1142 40.4233 15.5792 40.525 16.1375C40.965 18.5558 41.3375 20.925 41.6425 23.245C41.6503 23.3013 41.6777 23.3529 41.7199 23.3905C41.7621 23.4282 41.8163 23.4493 41.8725 23.45L46.38 23.465C46.4297 23.4657 46.4771 23.4858 46.5118 23.521C46.5465 23.5561 46.5657 23.6034 46.565 23.6525L46.5625 25.3775Z" fill="#FFD800"/>
<path d="M33.9425 32.175C34.0808 32.865 34.1866 33.6083 34.26 34.405C34.2633 34.4467 34.2808 34.4825 34.3125 34.5125C34.3325 34.5325 34.3558 34.5392 34.3825 34.5325C34.4325 34.5225 34.4616 34.4917 34.47 34.44L34.745 32.4275C35.5666 32.2275 36.01 31.6958 36.075 30.8325C36.2575 28.3425 36.775 25.3475 37.025 23.2875C37.2516 21.4292 37.4875 19.5575 37.7325 17.6725C37.7925 17.22 37.8375 16.5925 38.3 16.355C38.85 16.0725 39.3575 16.3475 39.4525 16.9675C39.6975 18.59 40.11 20.1225 40.2825 21.81C40.3908 22.875 40.525 23.9575 40.685 25.0575C40.6936 25.1187 40.7251 25.1745 40.7732 25.2138C40.8213 25.2531 40.8826 25.2732 40.945 25.27C42.7883 25.1783 44.6608 25.2142 46.5625 25.3775L46.56 26.35C46.56 26.4106 46.5361 26.4687 46.4935 26.5117C46.4509 26.5548 46.393 26.5793 46.3325 26.58L39.735 26.5875C39.6466 26.5875 39.5941 26.5442 39.5775 26.4575C39.4858 25.9758 39.4241 25.5117 39.3925 25.065C39.2775 23.4733 39.1083 21.9683 38.885 20.55C38.8583 20.385 38.8133 20.2275 38.75 20.0775C38.6666 19.8792 38.6125 19.8867 38.5875 20.1C38.1341 24.1067 37.6633 28.0933 37.175 32.06C37.02 33.3233 36.8091 34.7658 36.5425 36.3875C36.29 37.93 36.2375 39.5525 35.86 41.07C35.635 41.975 34.9125 42.6625 33.92 42.5875C32.7766 42.5025 32.1466 41.855 32.03 40.645C31.3875 33.9325 31.1025 26.9275 30.4425 20.205C30.3941 19.7033 30.31 19.6967 30.19 20.185C29.735 22.035 29.3933 24.1008 29.165 26.3825C29.1594 26.4375 29.1338 26.4884 29.0931 26.5254C29.0524 26.5624 28.9996 26.5827 28.945 26.5825L20.3725 26.5875C20.2841 26.5875 20.2283 26.545 20.205 26.46C20.11 26.105 20.0908 25.7067 20.1475 25.265L27.9125 25.1975C27.9625 25.1977 28.0109 25.1792 28.0483 25.1455C28.0857 25.1118 28.1094 25.0653 28.115 25.015C28.2166 24.0767 28.3475 23.1525 28.5075 22.2425C28.8425 20.3475 29.1066 18.6408 29.3 17.1225C29.3866 16.4458 29.775 16.13 30.465 16.175C31 16.2075 31.24 16.7225 31.3 17.185C31.9216 21.9817 32.2833 25.3083 32.385 27.165C32.4516 28.385 32.5316 29.5508 32.625 30.6625C32.6625 31.12 32.7225 31.615 33.095 31.9375C33.5016 32.2925 33.7841 32.3717 33.9425 32.175Z" fill="#FFB500"/>
<path d="M1.92998 20.2075H1.77998C0.81762 20.2075 0.0374756 20.9876 0.0374756 21.95V27.17C0.0374756 28.1323 0.81762 28.9125 1.77998 28.9125H1.92998C2.89233 28.9125 3.67248 28.1323 3.67248 27.17V21.95C3.67248 20.9876 2.89233 20.2075 1.92998 20.2075Z" fill="#FFB500"/>
<path d="M66.6625 25.39C66.4625 25.4333 66.2583 25.3333 66.05 25.09C65.8533 24.8583 65.7033 24.7033 65.6 24.625C64.7883 24.0067 63.9275 23.4675 63.0175 23.0075C62.9975 22.5042 62.9983 22.1033 63.02 21.805C63.155 19.9975 65.85 19.6525 66.5025 21.2375C66.6042 21.4875 66.6575 21.9217 66.6625 22.54C66.6675 23.4767 66.6675 24.4267 66.6625 25.39Z" fill="#FFD800"/>
<path d="M66.6625 25.39C66.6708 25.9667 66.67 26.5658 66.66 27.1875C66.6175 29.4975 63.11 29.5425 63.055 27.245C63.0217 25.885 63.0092 24.4725 63.0175 23.0075C63.9275 23.4675 64.7883 24.0067 65.6 24.625C65.7033 24.7033 65.8533 24.8583 66.05 25.09C66.2583 25.3333 66.4625 25.4333 66.6625 25.39Z" fill="#FFB500"/>
<path d="M17.2525 24.7125C17.2392 31.2008 17.2384 35.6925 17.25 38.1875C17.2534 39.0608 16.9009 39.685 16.1925 40.06C14.86 40.7675 13.21 39.865 13.2125 38.315C13.2125 34.7233 13.2125 31.2192 13.2125 27.8025L17.2525 24.7125Z" fill="#FFB500"/>
<path d="M53.495 27.415C53.4933 30.985 53.4817 34.5967 53.46 38.25C53.4533 39.3883 52.9067 40.0642 51.82 40.2775C50.63 40.5125 49.4375 39.6425 49.435 38.375C49.4266 33.89 49.4225 29.3117 49.4225 24.64C50.8425 25.46 52.2 26.385 53.495 27.415Z" fill="#FFB500"/>
<path d="M10.36 25.1175C10.3767 28.8492 10.3717 31.8208 10.345 34.0325C10.3225 35.6675 8.57 36.3625 7.2625 35.4775C6.2575 34.7975 6.4 33.96 6.395 32.9125C6.385 31.1525 6.39416 29.48 6.4225 27.895C7.30083 27.4433 8.09166 26.8475 8.795 26.1075C9.08666 25.7992 9.60833 25.4692 10.36 25.1175Z" fill="#FFB500"/>
<path d="M60.2225 31.7475C60.2375 32.4208 60.235 33.2033 60.215 34.095C60.175 35.72 58.24 36.3375 57.035 35.4525C56.51 35.0658 56.2517 34.5392 56.26 33.8725C56.2767 32.3558 56.2909 30.8058 56.3025 29.2225L60.2225 31.7475Z" fill="#FFB500"/>
<path d="M28.3625 54.95C28.3425 54.9667 28.3225 54.9658 28.3025 54.9475C27.3942 54.0358 26.4633 53.6983 25.51 53.935C23.795 54.3625 22.8425 56.07 23.3975 57.775C23.6858 58.6617 24.3342 59.2842 25.3425 59.6425C26.3825 60.015 27.5625 59.4925 28.2475 58.72C28.2776 58.6861 28.3197 58.6652 28.3646 58.662C28.4096 58.6587 28.4537 58.6732 28.4875 58.7025L30.1375 60.1025C30.1535 60.116 30.1665 60.1326 30.1758 60.1513C30.1851 60.1701 30.1905 60.1906 30.1916 60.2116C30.1928 60.2326 30.1897 60.2537 30.1826 60.2736C30.1754 60.2935 30.1643 60.3119 30.15 60.3275C29.4417 61.0808 28.6117 61.6283 27.66 61.97C26.045 62.55 24.5825 62.195 23.14 61.37C22.7367 61.1383 22.3917 60.845 22.105 60.49C20.3625 58.34 20.21 55.3675 22.1 53.1425C22.3967 52.7925 22.7433 52.4992 23.14 52.2625C25.595 50.7908 27.9417 51.1383 30.18 53.305C30.1967 53.32 30.1967 53.335 30.18 53.35C29.6433 53.8867 29.0375 54.42 28.3625 54.95Z" fill="white"/>
<path d="M5.21753 54.085L5.24002 61.9725C5.24002 62.0017 5.22843 62.0297 5.20781 62.0503C5.18718 62.0709 5.1592 62.0825 5.13002 62.0825L2.82002 62.085C2.79085 62.085 2.76287 62.0734 2.74224 62.0528C2.72161 62.0322 2.71002 62.0042 2.71002 61.975L2.71502 54.09C2.71502 54.0608 2.70343 54.0329 2.68281 54.0122C2.66218 53.9916 2.6342 53.98 2.60502 53.98L-0.294975 53.9875C-0.324149 53.9875 -0.352128 53.9759 -0.372757 53.9553C-0.393386 53.9347 -0.404976 53.9067 -0.404976 53.8775L-0.412476 51.6975C-0.412476 51.6683 -0.400886 51.6404 -0.380257 51.6197C-0.359628 51.5991 -0.331649 51.5875 -0.302475 51.5875L8.23002 51.58C8.2592 51.58 8.28718 51.5916 8.30781 51.6122C8.32843 51.6329 8.34002 51.6608 8.34002 51.69L8.33502 53.8675C8.33502 53.8967 8.32344 53.9247 8.30281 53.9453C8.28218 53.9659 8.2542 53.9775 8.22503 53.9775L5.32752 53.975C5.29835 53.975 5.27037 53.9866 5.24974 54.0072C5.22911 54.0279 5.21753 54.0558 5.21753 54.085Z" fill="white"/>
<path d="M13.15 59.655L18.8675 59.625C18.898 59.625 18.9272 59.6371 18.9488 59.6587C18.9704 59.6802 18.9825 59.7095 18.9825 59.74L18.995 61.9425C18.995 61.973 18.9829 62.0022 18.9613 62.0238C18.9397 62.0454 18.9105 62.0575 18.88 62.0575L10.5875 62.095C10.557 62.095 10.5277 62.0829 10.5062 62.0613C10.4846 62.0397 10.4725 62.0105 10.4725 61.98L10.4275 51.705C10.4275 51.6745 10.4396 51.6452 10.4612 51.6237C10.4827 51.6021 10.512 51.59 10.5425 51.59L18.8325 51.5525C18.8476 51.5525 18.8625 51.5555 18.8765 51.5612C18.8904 51.567 18.9031 51.5755 18.9138 51.5862C18.9245 51.5969 18.933 51.6095 18.9387 51.6235C18.9445 51.6374 18.9475 51.6524 18.9475 51.6675L18.9575 53.87C18.9575 53.9005 18.9454 53.9297 18.9238 53.9513C18.9022 53.9729 18.873 53.985 18.8425 53.985L13.1225 54.0075C13.1074 54.0075 13.0924 54.0105 13.0785 54.0162C13.0645 54.022 13.0519 54.0305 13.0412 54.0412C13.0305 54.0519 13.022 54.0645 13.0162 54.0785C13.0105 54.0924 13.0075 54.1074 13.0075 54.1225L13.0175 55.495C13.0175 55.5255 13.0296 55.5547 13.0512 55.5763C13.0727 55.5979 13.102 55.61 13.1325 55.61L18.325 55.59C18.3555 55.59 18.3847 55.6021 18.4063 55.6237C18.4279 55.6452 18.44 55.6745 18.44 55.705L18.4475 57.91C18.4475 57.9405 18.4354 57.9697 18.4138 57.9913C18.3922 58.0129 18.363 58.025 18.3325 58.025L13.1425 58.05C13.1274 58.05 13.1124 58.053 13.0985 58.0587C13.0845 58.0645 13.0719 58.073 13.0612 58.0837C13.0505 58.0944 13.042 58.107 13.0362 58.121C13.0305 58.1349 13.0275 58.1499 13.0275 58.165L13.035 59.54C13.035 59.5705 13.0471 59.5997 13.0687 59.6213C13.0902 59.6429 13.1195 59.655 13.15 59.655Z" fill="white"/>
<path d="M39.2775 57.98L35.1025 57.9825C35.0773 57.9825 35.0532 57.9925 35.0353 58.0103C35.0175 58.0282 35.0075 58.0523 35.0075 58.0775L35.0025 61.995C35.0025 62.0202 34.9925 62.0444 34.9747 62.0622C34.9569 62.08 34.9327 62.09 34.9075 62.09L32.495 62.095C32.4698 62.095 32.4457 62.085 32.4278 62.0672C32.41 62.0494 32.4 62.0252 32.4 62L32.3975 51.6825C32.3975 51.6573 32.4075 51.6332 32.4253 51.6153C32.4432 51.5975 32.4673 51.5875 32.4925 51.5875L34.9075 51.5825C34.9327 51.5825 34.9569 51.5925 34.9747 51.6103C34.9925 51.6282 35.0025 51.6523 35.0025 51.6775L35.0125 55.3975C35.0125 55.41 35.015 55.4223 35.0198 55.4339C35.0245 55.4454 35.0315 55.4559 35.0403 55.4647C35.0492 55.4735 35.0596 55.4805 35.0712 55.4853C35.0827 55.4901 35.095 55.4925 35.1075 55.4925L39.2675 55.49C39.2927 55.49 39.3169 55.48 39.3347 55.4622C39.3525 55.4444 39.3625 55.4202 39.3625 55.395L39.365 51.675C39.365 51.6498 39.375 51.6257 39.3928 51.6078C39.4107 51.59 39.4348 51.58 39.46 51.58H41.8775C41.9027 51.58 41.9269 51.59 41.9447 51.6078C41.9625 51.6257 41.9725 51.6498 41.9725 51.675L41.985 61.995C41.985 62.0202 41.975 62.0444 41.9572 62.0622C41.9394 62.08 41.9152 62.09 41.89 62.09L39.4775 62.0875C39.4523 62.0875 39.4282 62.0775 39.4103 62.0597C39.3925 62.0419 39.3825 62.0177 39.3825 61.9925L39.3725 58.075C39.3725 58.0498 39.3625 58.0257 39.3447 58.0078C39.3269 57.99 39.3027 57.98 39.2775 57.98Z" fill="white"/>
<path d="M46.75 58.09L46.745 61.975C46.745 62.0048 46.7332 62.0334 46.7121 62.0545C46.691 62.0756 46.6624 62.0875 46.6325 62.0875H44.32C44.2902 62.0875 44.2616 62.0756 44.2405 62.0545C44.2194 62.0334 44.2075 62.0048 44.2075 61.975L44.2025 51.6975C44.2025 51.6827 44.2054 51.6681 44.2111 51.6544C44.2167 51.6408 44.225 51.6284 44.2355 51.6179C44.2459 51.6075 44.2583 51.5992 44.272 51.5936C44.2856 51.5879 44.3002 51.585 44.315 51.585H52.0375C52.0523 51.585 52.0669 51.5879 52.0806 51.5936C52.0942 51.5992 52.1066 51.6075 52.1171 51.6179C52.1275 51.6284 52.1358 51.6408 52.1414 51.6544C52.1471 51.6681 52.15 51.6827 52.15 51.6975V53.8875C52.15 53.9023 52.1471 53.9169 52.1414 53.9305C52.1358 53.9442 52.1275 53.9566 52.1171 53.967C52.1066 53.9775 52.0942 53.9858 52.0806 53.9914C52.0669 53.9971 52.0523 54 52.0375 54L46.8825 53.995C46.8527 53.995 46.8241 54.0068 46.803 54.0279C46.7819 54.049 46.77 54.0777 46.77 54.1075L46.7825 55.4675C46.7825 55.4823 46.7854 55.4969 46.7911 55.5105C46.7967 55.5242 46.805 55.5366 46.8155 55.547C46.8259 55.5575 46.8383 55.5658 46.852 55.5714C46.8656 55.5771 46.8802 55.58 46.895 55.58L51.54 55.5825C51.5699 55.5825 51.5985 55.5943 51.6196 55.6154C51.6407 55.6365 51.6525 55.6652 51.6525 55.695L51.65 57.8725C51.65 57.9023 51.6382 57.9309 51.6171 57.952C51.596 57.9731 51.5674 57.985 51.5375 57.985L46.8625 57.9775C46.8327 57.9775 46.8041 57.9893 46.783 58.0104C46.7619 58.0315 46.75 58.0602 46.75 58.09Z" fill="white"/>
<path d="M56.45 51.58H54.23C54.1803 51.58 54.14 51.6203 54.14 51.67V61.995C54.14 62.0447 54.1803 62.085 54.23 62.085H56.45C56.4997 62.085 56.54 62.0447 56.54 61.995V51.67C56.54 51.6203 56.4997 51.58 56.45 51.58Z" fill="white"/>
<path d="M61.4025 53.975L58.645 53.9675C58.6151 53.9675 58.5865 53.9556 58.5654 53.9345C58.5443 53.9134 58.5325 53.8848 58.5325 53.855L58.535 51.6975C58.535 51.6827 58.5379 51.6681 58.5435 51.6544C58.5492 51.6408 58.5575 51.6284 58.5679 51.6179C58.5784 51.6075 58.5908 51.5992 58.6044 51.5936C58.6181 51.5879 58.6327 51.585 58.6475 51.585L67.1225 51.59C67.1523 51.59 67.1809 51.6018 67.202 51.6229C67.2231 51.644 67.235 51.6727 67.235 51.7025L67.245 53.8625C67.245 53.8923 67.2331 53.9209 67.212 53.942C67.1909 53.9631 67.1623 53.975 67.1325 53.975L64.2 53.98C64.1701 53.98 64.1415 53.9918 64.1204 54.0129C64.0993 54.034 64.0875 54.0627 64.0875 54.0925L64.09 61.9775C64.09 62.0073 64.0781 62.0359 64.057 62.057C64.0359 62.0781 64.0073 62.09 63.9775 62.09L61.6325 62.08C61.6026 62.08 61.574 62.0681 61.5529 62.047C61.5318 62.0259 61.52 61.9973 61.52 61.9675L61.515 54.0875C61.515 54.0727 61.5121 54.0581 61.5064 54.0444C61.5008 54.0308 61.4925 54.0184 61.482 54.0079C61.4716 53.9975 61.4592 53.9892 61.4455 53.9836C61.4319 53.9779 61.4172 53.975 61.4025 53.975Z" fill="white"/>
<path d="M19.0825 68.7825C19.5008 69.0058 19.9067 68.9442 20.3 68.5975C20.3184 68.5815 20.34 68.5696 20.3633 68.5624C20.3867 68.5552 20.4113 68.553 20.4357 68.5558C20.4601 68.5586 20.4838 68.5664 20.5051 68.5788C20.5265 68.5911 20.5452 68.6077 20.56 68.6275L20.825 68.99C20.8983 69.0883 20.8825 69.17 20.7775 69.235C20.17 69.61 18.885 69.8275 18.3475 69.165C17.7542 68.4333 17.675 67.6592 18.11 66.8425C18.62 65.88 19.9575 65.965 20.74 66.415C20.8367 66.47 20.8533 66.5433 20.79 66.635L20.515 67.0425C20.5033 67.0602 20.4881 67.0752 20.4703 67.0867C20.4524 67.0982 20.4324 67.1058 20.4115 67.1091C20.3905 67.1124 20.3691 67.1113 20.3487 67.1058C20.3282 67.1004 20.309 67.0907 20.2925 67.0775C18.9225 66.005 17.8225 68.11 19.0825 68.7825Z" fill="white"/>
<path d="M47.4675 67.5575C47.2675 68.2142 47.0183 68.8092 46.72 69.3425C46.6866 69.4021 46.6378 69.4517 46.5787 69.4859C46.5196 69.5202 46.4523 69.5379 46.384 69.5371C46.3157 69.5363 46.2488 69.5171 46.1905 69.4816C46.1321 69.446 46.0845 69.3954 46.0525 69.335C45.7475 68.7567 45.5083 68.18 45.335 67.605C45.2533 67.33 45.21 67.3358 45.205 67.6225L45.18 69.38C45.18 69.48 45.13 69.5283 45.03 69.525L44.565 69.515C44.47 69.5133 44.4225 69.4642 44.4225 69.3675L44.41 66.3075C44.41 66.1625 44.4825 66.0908 44.6275 66.0925L45.225 66.1C45.2622 66.1001 45.2987 66.1113 45.3298 66.1322C45.3609 66.1531 45.3853 66.1828 45.4 66.2175L46.3325 68.4C46.3374 68.4118 46.3457 68.422 46.3564 68.4291C46.3671 68.4362 46.3796 68.44 46.3925 68.44C46.4053 68.44 46.4179 68.4362 46.4285 68.4291C46.4392 68.422 46.4475 68.4118 46.4525 68.4L47.3875 66.235C47.4258 66.1467 47.4925 66.1025 47.5875 66.1025L48.175 66.1C48.315 66.0983 48.3841 66.1667 48.3825 66.305L48.3625 69.3C48.3625 69.3586 48.3394 69.4148 48.2982 69.4564C48.257 69.4981 48.2011 69.5218 48.1425 69.5225L47.7525 69.53C47.6458 69.5317 47.5933 69.4792 47.595 69.3725C47.605 68.7358 47.595 68.135 47.565 67.57C47.555 67.3817 47.5225 67.3775 47.4675 67.5575Z" fill="white"/>
<path d="M13.2975 68.84C12.9758 68.8583 12.6666 68.8617 12.37 68.85C12.3128 68.8478 12.2569 68.866 12.2123 68.9014C12.1678 68.9367 12.1376 68.9868 12.1275 69.0425C12.0425 69.4625 11.7625 69.6242 11.2875 69.5275C11.1908 69.5092 11.1558 69.4517 11.1825 69.355C11.4775 68.28 12.03 67.3425 12.3675 66.2725C12.4008 66.1675 12.4725 66.1142 12.5825 66.1125L13.17 66.1C13.275 66.0983 13.35 66.1442 13.395 66.2375C13.8833 67.2542 14.245 68.2608 14.48 69.2575C14.5216 69.4308 14.4533 69.5183 14.275 69.52L14.115 69.5225C13.91 69.5242 13.7791 69.4267 13.7225 69.23C13.6625 69.0225 13.55 68.8275 13.2975 68.84ZM12.4525 68.1025C12.4473 68.1167 12.4456 68.1319 12.4475 68.1469C12.4494 68.162 12.4548 68.1763 12.4634 68.1888C12.472 68.2012 12.4834 68.2115 12.4967 68.2186C12.51 68.2258 12.5249 68.2297 12.54 68.23L13.2225 68.245C13.2377 68.2454 13.2528 68.2421 13.2665 68.2354C13.2802 68.2287 13.2921 68.2188 13.3012 68.2065C13.3103 68.1943 13.3163 68.18 13.3187 68.1649C13.3211 68.1499 13.3198 68.1345 13.315 68.12L12.9925 67.115C12.9867 67.096 12.975 67.0793 12.9592 67.0672C12.9434 67.0552 12.9242 67.0484 12.9043 67.0478C12.8844 67.0473 12.8648 67.053 12.8484 67.0641C12.8319 67.0753 12.8193 67.0913 12.8125 67.11L12.4525 68.1025Z" fill="white"/>
<path d="M24.96 68.935C24.8684 69.04 24.7992 69.17 24.7525 69.325C24.7159 69.4517 24.6309 69.5167 24.4975 69.52L24.0925 69.5325C23.9659 69.5358 23.9225 69.4775 23.9625 69.3575C24.2975 68.3325 24.7175 67.2858 25.2225 66.2175C25.2575 66.1442 25.3159 66.1083 25.3975 66.11L26.1075 66.12C26.2075 66.12 26.2717 66.1683 26.3 66.265C26.4 66.615 26.5034 66.9675 26.61 67.3225C26.825 68.025 27.19 68.65 27.365 69.36C27.3696 69.3785 27.3699 69.3978 27.3658 69.4165C27.3618 69.4351 27.3536 69.4526 27.3417 69.4675C27.3299 69.4825 27.3148 69.4945 27.2976 69.5028C27.2804 69.511 27.2616 69.5152 27.2425 69.515L26.8225 69.5125C26.7724 69.5124 26.7234 69.4964 26.6826 69.4668C26.6418 69.4372 26.6112 69.3955 26.595 69.3475L26.4775 68.9975C26.4459 68.9025 26.38 68.8542 26.28 68.8525L25.1625 68.845C25.0809 68.845 25.0134 68.875 24.96 68.935ZM25.26 68.07C25.2528 68.0922 25.251 68.1157 25.2548 68.1387C25.2586 68.1617 25.2679 68.1834 25.2818 68.2021C25.2958 68.2207 25.3141 68.2357 25.3351 68.2458C25.3561 68.2559 25.3792 68.2608 25.4025 68.26L26.0425 68.235C26.0658 68.234 26.0884 68.2273 26.1085 68.2157C26.1286 68.204 26.1457 68.1877 26.1582 68.1681C26.1707 68.1485 26.1783 68.1262 26.1803 68.103C26.1824 68.0798 26.1789 68.0565 26.17 68.035L25.8175 67.19C25.8059 67.1632 25.7865 67.1406 25.7618 67.125C25.7371 67.1094 25.7083 67.1017 25.6791 67.1028C25.6499 67.1038 25.6218 67.1137 25.5983 67.131C25.5748 67.1484 25.5571 67.1724 25.5475 67.2L25.26 68.07Z" fill="white"/>
<path d="M31.0875 66.245C31.0875 66.2105 31.1012 66.1774 31.1256 66.1531C31.15 66.1287 31.183 66.115 31.2175 66.115L32.8125 66.1125C33.0299 66.1121 33.2452 66.153 33.4461 66.2327C33.647 66.3124 33.8296 66.4295 33.9836 66.5771C34.1375 66.7248 34.2597 66.9001 34.3431 67.0932C34.4266 67.2863 34.4697 67.4933 34.47 67.7025V67.9325C34.4707 68.3548 34.2969 68.7601 33.987 69.0592C33.6771 69.3584 33.2564 69.5268 32.8175 69.5275L31.2225 69.53C31.188 69.53 31.155 69.5163 31.1306 69.4919C31.1062 69.4675 31.0925 69.4345 31.0925 69.4L31.0875 66.245ZM31.895 66.9775V68.7575C31.895 68.7933 31.9092 68.8276 31.9346 68.8529C31.9599 68.8783 31.9942 68.8925 32.03 68.8925H32.6075C32.8734 68.8925 33.1284 68.7911 33.3164 68.6106C33.5044 68.4301 33.61 68.1853 33.61 67.93V67.805C33.61 67.5497 33.5044 67.3049 33.3164 67.1244C33.1284 66.9439 32.8734 66.8425 32.6075 66.8425H32.03C32.0123 66.8425 31.9947 66.846 31.9784 66.8528C31.962 66.8595 31.9471 66.8695 31.9346 66.882C31.922 66.8946 31.9121 66.9094 31.9053 66.9258C31.8985 66.9422 31.895 66.9598 31.895 66.9775Z" fill="white"/>
<path d="M39.125 66.9425L39.1325 67.32C39.1332 67.3541 39.1472 67.3865 39.1715 67.4103C39.1958 67.4342 39.2285 67.4475 39.2625 67.4475L40.57 67.4425C40.5871 67.4425 40.604 67.4459 40.6198 67.4524C40.6355 67.4589 40.6499 67.4685 40.6619 67.4806C40.674 67.4927 40.6836 67.507 40.6901 67.5228C40.6967 67.5385 40.7 67.5554 40.7 67.5725V68.0925C40.7 68.127 40.6863 68.1601 40.6619 68.1844C40.6376 68.2088 40.6045 68.2225 40.57 68.2225L39.2575 68.2175C39.223 68.2175 39.19 68.2312 39.1656 68.2556C39.1412 68.28 39.1275 68.313 39.1275 68.3475L39.13 68.725C39.13 68.7595 39.1437 68.7926 39.1681 68.8169C39.1925 68.8413 39.2255 68.855 39.26 68.855L40.75 68.8475C40.7845 68.8475 40.8176 68.8612 40.8419 68.8856C40.8663 68.91 40.88 68.943 40.88 68.9775L40.8825 69.4C40.8825 69.4345 40.8688 69.4675 40.8444 69.4919C40.8201 69.5163 40.787 69.53 40.7525 69.53L38.4 69.525C38.3655 69.525 38.3325 69.5113 38.3081 69.4869C38.2837 69.4626 38.27 69.4295 38.27 69.395V66.27C38.27 66.2355 38.2837 66.2025 38.3081 66.1781C38.3325 66.1537 38.3655 66.14 38.4 66.14L40.75 66.1325C40.7671 66.1325 40.784 66.1359 40.7998 66.1424C40.8155 66.1489 40.8299 66.1585 40.8419 66.1706C40.854 66.1827 40.8636 66.197 40.8701 66.2128C40.8767 66.2285 40.88 66.2454 40.88 66.2625V66.685C40.88 66.7195 40.8663 66.7526 40.8419 66.7769C40.8176 66.8013 40.7845 66.815 40.75 66.815L39.255 66.81C39.2377 66.81 39.2206 66.8134 39.2047 66.8201C39.1887 66.8268 39.1743 66.8366 39.1622 66.849C39.1501 66.8613 39.1406 66.8759 39.1342 66.892C39.1278 66.9081 39.1247 66.9252 39.125 66.9425Z" fill="white"/>
<path d="M52.685 67.42C52.6964 67.4419 52.7136 67.4603 52.7347 67.4733C52.7557 67.4862 52.7798 67.4932 52.8043 67.4935C52.8288 67.4937 52.8528 67.4873 52.8736 67.4747C52.8945 67.4622 52.9114 67.4441 52.9225 67.4225L53.5225 66.305C53.5891 66.1833 53.6908 66.1242 53.8275 66.1275L54.3625 66.145C54.4708 66.1483 54.4983 66.1975 54.445 66.2925C54.17 66.7808 53.8658 67.2433 53.5325 67.68C53.1775 68.145 53.1675 68.6925 53.2175 69.2475C53.2206 69.2843 53.216 69.3214 53.2039 69.3564C53.1919 69.3914 53.1726 69.4234 53.1474 69.4505C53.1222 69.4776 53.0917 69.4991 53.0576 69.5137C53.0236 69.5282 52.987 69.5355 52.95 69.535H52.6725C52.4425 69.5333 52.3375 69.4175 52.3575 69.1875C52.405 68.665 52.42 68.22 52.1125 67.755C51.7808 67.2533 51.4766 66.7675 51.2 66.2975C51.1889 66.2785 51.183 66.2568 51.1827 66.2348C51.1825 66.2128 51.188 66.1912 51.1987 66.1722C51.2093 66.1531 51.2248 66.1374 51.2434 66.1264C51.2621 66.1155 51.2833 66.1098 51.305 66.11L51.7975 66.1075C51.8623 66.1076 51.926 66.1256 51.9815 66.1596C52.0371 66.1935 52.0824 66.2421 52.1125 66.3L52.685 67.42Z" fill="white"/>
<path d="M9.36498 67.785H0.00998116C-0.213694 67.785 -0.39502 67.9663 -0.39502 68.19V68.205C-0.39502 68.4287 -0.213694 68.61 0.00998116 68.61H9.36498C9.58866 68.61 9.76998 68.4287 9.76998 68.205V68.19C9.76998 67.9663 9.58866 67.785 9.36498 67.785Z" fill="white"/>
<path d="M66.95 67.785H56.115C55.8913 67.785 55.71 67.9663 55.71 68.19V68.205C55.71 68.4287 55.8913 68.61 56.115 68.61H66.95C67.1737 68.61 67.355 68.4287 67.355 68.205V68.19C67.355 67.9663 67.1737 67.785 66.95 67.785Z" fill="white"/>
</g>
<defs>
<clipPath id="clip0_436_64">
<rect width="67" height="72" fill="white"/>
</clipPath>
</defs>
</svg>
