<svg width="643" height="216" viewBox="0 0 643 216" fill="none" xmlns="http://www.w3.org/2000/svg">
<path fill-rule="evenodd" clip-rule="evenodd" d="M9.28203 63.4533C24.081 31.4213 54.257 7.53834 88.029 1.12634C93.233 0.138336 100.386 -0.176667 111.513 0.0913327C131.029 0.562333 142.303 3.13732 157.632 10.6243C198.633 30.6503 222.827 73.0083 218.909 117.909C216.378 146.915 200.293 175.408 176.013 193.898C166.837 200.885 149.457 209.153 137.513 212.213C119.14 216.921 96.187 216.641 78.513 211.496C37.9 199.672 6.80704 164.501 0.947043 123.756C-1.80496 104.621 1.58103 80.1203 9.28203 63.4533ZM236.013 107.326C236.013 74.6923 236.313 47.6923 236.68 47.3263C237.046 46.9593 244.226 46.6593 252.634 46.6593H267.921L272.418 60.9093C274.891 68.7463 281.219 89.1093 286.479 106.159C291.74 123.209 296.299 137.834 296.611 138.659C296.922 139.484 300.744 128.459 305.102 114.159C309.461 99.8593 316.019 78.8523 319.675 67.4773L326.323 46.7953L341.918 46.9773L357.513 47.1593V107.159V167.159L346.883 167.442C337.534 167.69 336.171 167.514 335.582 165.979C335.214 165.018 335.047 147.026 335.213 125.996C335.378 104.965 335.246 88.0733 334.919 88.4593C334.593 88.8443 328.614 106.597 321.633 127.909L308.941 166.659H297.193H285.445L272.564 127.659C265.48 106.209 259.42 88.6593 259.098 88.6593C258.776 88.6583 258.64 106.208 258.795 127.659L259.077 166.659H247.545H236.013V107.326ZM150.513 81.1593L160.763 65.9093C166.4 57.5223 170.663 50.6593 170.235 50.6593C169.807 50.6593 166.319 52.1653 162.485 54.0053C152.735 58.6853 141.066 68.1983 138.011 73.9573C134.907 79.8083 135.714 80.7343 144.13 80.9763L150.513 81.1593ZM124.013 73.0583C124.013 71.3353 123.204 69.2373 122.184 68.3143C120.551 66.8363 116.348 66.6593 82.875 66.6593C42.11 66.6593 41.763 66.7053 41.763 72.1593C41.763 77.5123 42.673 77.6583 75.954 77.6683L106.513 77.6773L74.263 109.426C40.282 142.878 39.406 143.99 43.842 148.004C45.504 149.508 51.557 149.659 110.187 149.659C171.419 149.659 174.787 149.566 176.358 147.83C178.583 145.371 178.445 142.091 176.013 139.659C174.153 137.799 172.663 137.657 154.763 137.637C140.389 137.621 135.752 137.646 132.772 135.436C131.303 134.347 130.237 132.716 128.606 130.269C127.008 127.872 125.882 126.343 126.244 125.369C126.916 123.565 132.684 123.659 149.99 123.659H173.967L175.622 121.133C179.266 115.571 174.393 101.88 166.128 94.4563C160.041 88.9903 153.537 86.6483 144.459 86.6543C136.165 86.6603 129.601 89.4153 123.567 95.4223C117.011 101.949 114.616 107.863 114.561 117.659C114.52 124.862 114.924 127.037 117.208 131.909L119.902 137.659H91.214H62.525L93.2691 106.903C120.322 79.8403 124.013 75.7763 124.013 73.0583ZM373.313 102.669C377.985 93.0923 389.163 84.3413 400.826 81.1293C407.435 79.3093 418.688 79.3743 425.081 81.2693C432.918 83.5933 437.647 86.2363 443.114 91.3503C452.649 100.269 457.013 110.479 457.013 123.869V130.659H423.513C398.083 130.659 390.924 130.463 390.117 132.63C389.742 133.639 390.741 135.159 391.916 137.449C398.537 150.361 416.926 154.3 429.17 145.43L433.473 142.313L442.396 143.439C447.304 144.059 451.767 145.013 452.315 145.561C453.574 146.82 451.239 150.485 445.562 156.163C437.187 164.538 426.594 168.669 413.553 168.647C378.573 168.588 357.783 134.5 373.313 102.669ZM492.455 86.1353C494.349 84.6913 498.061 82.6643 500.705 81.6313C507.338 79.0393 518.313 79.0513 525.279 81.6573C531.989 84.1683 536.165 87.2313 540.459 92.7943C546.43 100.528 547.013 104.479 547.013 137.197V166.371L539.184 167.024C534.878 167.383 529.928 167.392 528.184 167.043L525.013 166.409V138.494C525.013 112.507 524.874 110.307 523.003 106.64C516.612 94.1123 493.743 96.1743 490.009 109.615C489.467 111.564 489.022 125.197 489.019 139.909L489.013 166.659H478.013H467.013V124.276C467.013 84.7473 467.131 81.8623 468.763 81.4463C469.725 81.2003 474.676 81.2023 479.763 81.4513L489.013 81.9043V85.3323V88.7613L492.455 86.1353ZM561.882 81.8153L564.198 81.4443C566.482 81.0773 568.443 81.0803 578.763 81.4643L584.013 81.6593V108.947C584.013 135.26 584.093 136.394 586.263 140.689C592.641 153.314 610.289 153.861 617.459 141.656C619.378 138.389 619.533 136.297 619.82 109.909L620.127 81.6593H631.07H642.013V124.159V166.659H631.513H621.013V163.504C621.013 160.538 620.906 160.446 619.226 161.966C614.753 166.014 607.757 168.084 598.513 168.094C593.563 168.1 587.642 167.548 585.356 166.868C575.964 164.075 566.954 155.26 563.859 145.836C563.064 143.414 562.52 131.859 562.267 111.987L561.882 81.8153ZM128.268 107.485C130.878 103.213 134.925 99.8163 138.79 98.6513C145.848 96.5253 153.463 98.2643 159 103.266C161.115 105.177 163.31 108.072 163.877 109.7L164.909 112.659H145.461C134.765 112.659 126.015 112.322 126.018 111.909C126.021 111.496 127.033 109.506 128.268 107.485ZM435.013 114.609C435.013 109.373 428.049 101.641 421.134 99.2023C413.701 96.5793 405.486 97.6823 398.535 102.236C395.885 103.973 390.04 113.017 390.022 115.409C390.015 116.372 395.175 116.659 412.513 116.659C434.528 116.659 435.013 116.615 435.013 114.609Z" fill="#14C871"/>
</svg>
