<svg width="48" height="45" viewBox="0 0 48 45" fill="none" xmlns="http://www.w3.org/2000/svg">
<g clip-path="url(#clip0_456_178)">
<path d="M3.07779 44.0436L6.15782 33.067C4.25767 29.8549 3.25843 26.2099 3.25957 22.4766C3.26529 10.7969 13.0016 1.29468 24.9673 1.29468C30.7741 1.29691 36.223 3.50338 40.3217 7.50673C44.4193 11.5112 46.6761 16.8326 46.6738 22.4933C46.6693 34.173 36.9307 43.6764 24.9673 43.6764H24.9581C21.3259 43.6753 17.7554 42.7857 14.585 41.0971L3.07779 44.0436Z" fill="white"/>
<path d="M3.07777 44.6015C2.92685 44.6015 2.78051 44.5435 2.6719 44.4363C2.52899 44.2946 2.47297 44.0881 2.5267 43.8973L5.54385 33.1428C3.67342 29.8995 2.68676 26.2165 2.68905 22.4776C2.69362 10.4888 12.6871 0.736572 24.9673 0.736572C30.9238 0.738804 36.5202 3.00331 40.7264 7.11269C44.9326 11.2232 47.2477 16.6852 47.2454 22.4933C47.2409 34.481 37.2462 44.2343 24.9673 44.2343C21.3213 44.2332 17.7142 43.3549 14.513 41.693L3.22297 44.5826C3.17495 44.5959 3.12693 44.6015 3.07777 44.6015Z" fill="white"/>
<path d="M24.9672 1.29454C30.774 1.29677 36.223 3.50324 40.3217 7.50659C44.4192 11.5111 46.6761 16.8325 46.6738 22.4932C46.6692 34.1729 36.9306 43.6762 24.9672 43.6762H24.9581C21.3258 43.6751 17.7553 42.7856 14.585 41.097L3.07775 44.0434L6.15778 33.0669C4.25763 29.8548 3.25839 26.2097 3.25954 22.4765C3.26525 10.7968 13.0015 1.29454 24.9672 1.29454ZM24.9672 0.178467C12.3727 0.178467 2.12196 10.1807 2.11624 22.4765C2.1151 26.2343 3.0869 29.9374 4.92989 33.2153L1.97448 43.7499C1.86701 44.1349 1.97676 44.5457 2.26487 44.8291C2.4821 45.0434 2.77592 45.1606 3.07775 45.1606C3.17493 45.1606 3.27211 45.1483 3.36815 45.1238L14.4432 42.289C17.6765 43.9273 21.3007 44.7923 24.9581 44.7934C37.5617 44.7934 47.8125 34.7901 47.8182 22.4943C47.8205 16.5356 45.4459 10.9329 41.1323 6.71865C36.8163 2.50324 31.0758 0.180699 24.9672 0.178467Z" fill="#CFD8DC"/>
<path d="M37.7287 10.0357C34.3217 6.70762 29.7931 4.87392 24.973 4.8728C15.0217 4.8728 6.92837 12.7701 6.9238 22.4777C6.92266 25.8047 7.87616 29.0436 9.68256 31.8482L10.1124 32.5145L8.28889 39.0112L15.1178 37.2634L15.7775 37.6451C18.5465 39.25 21.7226 40.0983 24.9604 40.0994H24.9672C34.9116 40.0994 43.005 32.2009 43.0084 22.4922C43.0095 17.788 41.1357 13.3639 37.7287 10.0357Z" fill="black"/>
<path fill-rule="evenodd" clip-rule="evenodd" d="M19.5412 13.6216C19.1353 12.7399 18.7077 12.722 18.3201 12.7064C18.0034 12.693 17.6422 12.6941 17.2809 12.6941C16.9196 12.6941 16.3319 12.8269 15.8346 13.3571C15.3373 13.8872 13.9356 15.1673 13.9356 17.7722C13.9356 20.3772 15.8792 22.895 16.1502 23.2477C16.4211 23.6004 19.9025 29.1171 25.4154 31.2399C29.9966 33.0033 30.9295 32.6528 31.9242 32.5647C32.9188 32.4765 35.1334 31.2845 35.585 30.0479C36.0366 28.8113 36.0366 27.7521 35.9017 27.5312C35.7656 27.3102 35.4044 27.1785 34.8624 26.9129C34.3205 26.6472 31.6532 25.3671 31.1559 25.1908C30.6586 25.0144 30.2973 24.9263 29.9348 25.4564C29.5736 25.9854 28.5343 27.1785 28.2176 27.5312C27.9009 27.885 27.5842 27.9296 27.0423 27.664C26.5004 27.3984 24.7534 26.8403 22.6807 25.0367C21.0686 23.6338 19.9802 21.9006 19.6635 21.3705C19.3468 20.8414 19.6292 20.5546 19.9013 20.2901C20.1448 20.0524 20.4432 19.6718 20.7153 19.3626C20.9863 19.0535 21.0766 18.8325 21.2573 18.4798C21.4379 18.126 21.3476 17.8169 21.2115 17.5524C21.0778 17.2867 20.0236 14.6684 19.5412 13.6216Z" fill="white"/>
</g>
<defs>
<clipPath id="clip0_456_178">
<rect width="48" height="45" fill="white"/>
</clipPath>
</defs>
</svg>
