<svg width="50" height="34" viewBox="0 0 50 34" fill="none" xmlns="http://www.w3.org/2000/svg">
<path d="M48.9542 5.28024C48.6717 4.25912 48.1147 3.32716 47.3388 2.57766C46.563 1.82817 45.5955 1.28745 44.5333 1.00967C40.6355 -2.68131e-07 25 0 25 0C25 0 9.36458 -2.68131e-07 5.46458 1.00967C4.40294 1.28795 3.43603 1.82886 2.66058 2.57829C1.88513 3.32774 1.32832 4.25945 1.04583 5.28024C0 9.04697 0 16.9043 0 16.9043C0 16.9043 0 24.7617 1.04583 28.5284C1.3283 29.5496 1.88536 30.4815 2.66123 31.231C3.43709 31.9804 4.40453 32.5211 5.46667 32.799C9.36458 33.8086 25 33.8086 25 33.8086C25 33.8086 40.6355 33.8086 44.5355 32.799C45.5977 32.5214 46.5652 31.9807 47.3411 31.2313C48.117 30.4817 48.6739 29.5496 48.9563 28.5284C50 24.7617 50 16.9043 50 16.9043C50 16.9043 50 9.04697 48.9542 5.28024ZM19.8855 24.0379V9.77078L32.9542 16.9043L19.8855 24.0379Z" fill="white"/>
</svg>
